<?xml version="1.0" encoding="UTF-8" standalone="no"?>
<!-- Created with Inkscape (http://www.inkscape.org/) -->

<svg
   xmlns:dc="http://purl.org/dc/elements/1.1/"
   xmlns:cc="http://creativecommons.org/ns#"
   xmlns:rdf="http://www.w3.org/1999/02/22-rdf-syntax-ns#"
   xmlns:svg="http://www.w3.org/2000/svg"
   xmlns="http://www.w3.org/2000/svg"
   xmlns:sodipodi="http://sodipodi.sourceforge.net/DTD/sodipodi-0.dtd"
   xmlns:inkscape="http://www.inkscape.org/namespaces/inkscape"
   sodipodi:docname="ink_ext_XXXXXX.svgDVIKQW"
   inkscape:version="0.48.3.1 r9886"
   version="1.1"
   id="svg2985"
   height="1052.3622047"
   width="744.09448819">
  <sodipodi:namedview
     id="base"
     pagecolor="#ffffff"
     bordercolor="#ffffff"
     borderopacity="0.0"
     inkscape:pageopacity="0.0"
     inkscape:pageshadow="0"
     inkscape:zoom="2.8284271"
     inkscape:cx="4414.3892"
     inkscape:cy="4145.5324"
     inkscape:document-units="px"
     inkscape:current-layer="svg2985"
     showgrid="false"
     inkscape:window-width="1920"
     inkscape:window-height="1011"
     inkscape:window-x="0"
     inkscape:window-y="44"
     inkscape:window-maximized="1" />
  <defs
     id="defs2987">
    <inkscape:perspective
       sodipodi:type="inkscape:persp3d"
       inkscape:vp_x="0 : 526.18109 : 1"
       inkscape:vp_y="0 : 1000 : 0"
       inkscape:vp_z="744.09448 : 526.18109 : 1"
       inkscape:persp3d-origin="372.04724 : 350.78739 : 1"
       id="perspective10" />
    <linearGradient
       id="linearGradient4049">
      <stop
         id="stop4051"
         offset="0"
         style="stop-color:#28170b;stop-opacity:1" />
      <stop
         style="stop-color:#2b1e12;stop-opacity:1;"
         offset="0.5"
         id="stop4057" />
      <stop
         id="stop4053"
         offset="1"
         style="stop-color:#deaa87;stop-opacity:1" />
    </linearGradient>
  </defs>
  <metadata
     id="metadata2990">
    <rdf:RDF>
      <cc:Work
         rdf:about="">
        <dc:format>image/svg+xml</dc:format>
        <dc:type
           rdf:resource="http://purl.org/dc/dcmitype/StillImage" />
        <dc:title />
      </cc:Work>
    </rdf:RDF>
  </metadata>
  <g
     inkscape:label="Layer 1"
     inkscape:groupmode="layer"
     id="layer1" />
  <path
     id="path13414"
     d="M 4448.23634343,-3094.95090142 C 4448.73395134,-3086.31192309 4445.51451186,-3077.52649568 4439.51595407,-3071.19387489 C 4433.51739628,-3064.8612541 4424.81897453,-3061.06722583 4415.95106093,-3060.94685674 C 4407.08314733,-3060.82648765 4398.16261534,-3064.38260025 4391.77639538,-3070.59211963 C 4385.39017542,-3076.80163901 4381.62174397,-3085.58267351 4381.54565583,-3094.37318003 C 4381.46956769,-3103.16368656 4385.08519929,-3111.84682085 4391.30594431,-3117.87789459 C 4397.52668934,-3123.90896832 4406.26825011,-3127.20721166 4414.94794341,-3126.79284879 C 4423.62763672,-3126.37848591 4432.12877964,-3122.2559369 4437.94657076,-3115.60827287 C 4443.76436187,-3108.96060884 4446.82069956,-3099.87478412 4446.21408704,-3090.98118898 C 4445.60747453,-3082.08759384 4441.34588983,-3073.50289961 4434.68030396,-3067.71023774 C 4428.01471808,-3061.91757587 4419.03434148,-3058.99245704 4410.38150605,-3059.76579432 C 4401.72867061,-3060.53913161 4393.51957266,-3064.99941639 4388.17930259,-3071.82417665 C 4382.83903252,-3078.64893692 4380.4401055,-3087.74667583 4381.71249661,-3096.44822102 C 4382.98488772,-3105.14976622 4387.9133067,-3113.33927394 4395.084425,-3118.62460472 C 4402.25554329,-3123.9099355 4411.5755133,-3126.22132269 4420.34232916,-3124.89719989 C 4429.10914501,-3123.5730771 4437.20740742,-3118.63215043 4442.28503735,-3111.54326414 C 4447.36266727,-3104.45437785 4449.35282998,-3095.31330809 4447.68044832,-3086.82273803 C 4446.00806665,-3078.33216796 4440.69547892,-3070.60667914 4433.2930561,-3065.93539599 C 4425.89063327,-3061.26411283 4416.4963046,-3059.7107213 4407.84406014,-3061.75469197 C 4399.19181568,-3063.79866265 4391.39565996,-3069.41402691 4386.71353804,-3076.97518591 C 4382.03141612,-3084.53634491 4380.52413571,-3093.94342679 4382.60465321,-3102.45121099 C 4384.68517071,-3110.95899518 4390.32417429,-3118.45439834 4397.84303185,-3122.74025472 C 4405.36188942,-3127.0261111 4414.65903514,-3128.04486661 4422.9892252,-3125.48370908 C 4431.31941526,-3122.92255155 4438.57061599,-3116.81445881 4442.60375111,-3108.92345943 C 4446.63688624,-3101.03246005 4447.39759452,-3091.46204784 4444.65606575,-3082.9844003 C 4441.91453699,-3074.50675275 4435.70714892,-3067.23300804 4427.85420225,-3063.26272213 C 4420.00125559,-3059.29243622 4410.60775564,-3058.67687763 4402.43691156,-3061.57119679 C 4394.26606749,-3064.46551595 4387.42766392,-3070.82998988 4383.94573479,-3078.78499293 C 4380.46380566,-3086.73999598 4380.38614555,-3096.17899625 4383.76354161,-3104.33297048 C 4387.14093767,-3112.48694471 4393.9300978,-3119.2473332 4402.17325242,-3122.64014769 C 4410.41640704,-3126.03296218 4420.00544778,-3126.01361122 4428.15964039,-3122.60248757 C 4436.313833,-3119.19136392 4442.92592761,-3112.43493603 4446.07868843,-3104.33325228 C 4449.23144924,-3096.23156852 4448.88364712,-3086.89387778 4445.14427853,-3079.08039327 C 4441.40490994,-3071.26690876 4434.3238093,-3065.0832051 4425.9688032,-3062.36729017 C 4417.6137971,-3059.65137525 4408.09548656,-3060.44092373 4400.18413791,-3064.52987684 C 4392.27278927,-3068.61882996 4386.07255129,-3075.9540157 4383.37441366,-3084.40662641 C 4380.67627603,-3092.85923712 4381.5146545,-3102.31754238 4385.61618059,-3110.021334 C 4389.71770668,-3117.72512562 4397.0261841,-3123.57201535 4405.37450332,-3125.84718201 C 4413.72282253,-3128.12234867 4422.99838381,-3126.79498536 4430.4622588,-3122.23873937 C 4437.92613378,-3117.68249337 4443.47781296,-3109.95688218 4445.47548927,-3101.29920999 C 4447.47316558,-3092.6415378 4445.88955447,-3083.16549708 4441.18077868,-3075.61565282 C 4436.47200289,-3068.06580856 4428.70060948,-3062.54095684 4420.14451717,-3060.62893865 C 4411.58842485,-3058.71692046 4402.36199255,-3060.4416242 4395.17954649,-3065.27345444 C 4387.99710042,-3070.10528467 4382.95527706,-3077.97874467 4381.55244238,-3086.57268906 C 4380.14960771,-3095.16663344 4382.40589916,-3104.3660308 4387.68920447,-3111.47196415 C 4392.97250979,-3118.5778975 4401.21418353,-3123.49574872 4410.03145986,-3124.79064422 C 4418.84873619,-3126.08553973 4428.12586949,-3123.74079565 4435.17338764,-3118.45719999 C 4442.22090578,-3113.17360433 4446.94628046,-3105.02253411 4447.98431811,-3096.41210116 C 4449.02235576,-3087.80166821 4446.35995836,-3078.84788906 4440.78335825,-3072.19864684 C 4435.20675813,-3065.54940462 4426.79022949,-3061.29478662 4417.99233666,-3060.70836251 C 4409.19444382,-3060.12193839 4400.13167931,-3063.2130553 4393.44101959,-3069.10223016 C 4386.75035988,-3074.99140502 4382.5197155,-3083.60151838 4381.96378559,-3092.43072686 C 4381.40785568,-3101.25993534 4384.53255926,-3110.19149883 4390.39556366,-3116.61933044 C 4396.25856806,-3123.04716204 4404.78024492,-3126.88584698 4413.43851027,-3127.00815201 C 4422.09677562,-3127.13045704 4430.77490666,-3123.53421372 4436.90877933,-3117.25692919 C 4443.04265199,-3110.97964467 4446.54944914,-3102.10373055 4446.38568316,-3093.20306235 C 4446.22191719,-3084.30239415 4442.38905615,-3075.4938968 4436.00133901,-3069.32681634 C 4429.61362187,-3063.15973589 4420.7559298,-3059.71447418 4412.02402562,-3059.97039741 C 4403.29212143,-3060.22632063 4394.80270277,-3064.17847814 4389.05445036,-3070.64553569 C 4383.30619794,-3077.11259324 4380.37666988,-3086.00730148 4381.14618798,-3094.70970429 C 4381.91570607,-3103.4121071 4386.37551004,-3111.80573031 4393.24875387,-3117.42742132 C 4400.12199769,-3123.04911233 4409.31888578,-3125.82399716 4418.17716265,-3124.94422056 C 4427.03543951,-3124.06444396 4435.43881413,-3119.54225065 4440.95347061,-3112.71553643 C 4446.46812708,-3105.88882221 4449.021928,-3096.84949143 4447.88506848,-3088.26555532 C 4446.74820896,-3079.68161922 4441.93652254,-3071.66874183 4434.86510987,-3066.59950443 C 4427.7936972,-3061.53026702 4418.55671721,-3059.47373887 4409.85279308,-3061.06034252 C 4401.14886895,-3062.64694618 4393.09324317,-3067.85712206 4388.02820984,-3075.19136393 C 4382.9631765,-3082.5256058 4380.95502126,-3091.8875712 4382.56815703,-3100.55542961 C 4384.1812928,-3109.22328801 4389.39278463,-3117.0824457 4396.64971886,-3121.84059487 C 4403.90665309,-3126.59874405 4413.11085862,-3128.19268088 4421.54054791,-3126.15197117 C 4429.97023721,-3124.11126146 4437.51172812,-3118.46251026 4441.93347024,-3110.84377547 C 4446.35521237,-3103.22504068 4447.59716419,-3093.73657855 4445.27851745,-3085.13149227 C 4442.95987071,-3076.52640598 4437.11075876,-3068.91768847 4429.43536277,-3064.50353784 C 4421.75996678,-3060.08938721 4412.36029726,-3058.92688696 4403.9906962,-3061.32748177 C 4395.62109513,-3063.72807659 4388.39344061,-3069.65828634 4384.43722919,-3077.35801126 C 4380.48101778,-3085.05773618 4379.84996894,-3094.42332937 4382.75188409,-3102.69705677 C 4385.65379924,-3110.97078416 4392.05155186,-3118.04187404 4400.1012645,-3121.83413865 C 4408.15097713,-3125.62640327 4417.7472042,-3126.08930458 4426.11084617,-3123.09145902 C 4434.47448814,-3120.09361346 4441.49583387,-3113.67544137 4445.14544034,-3105.72958987 C 4448.7950468,-3097.78373838 4449.02558641,-3088.41699915 4445.78702577,-3080.39318107 C 4442.54846513,-3072.36936299 4435.88459567,-3065.79667912 4427.75245501,-3062.62631926 C 4419.62031435,-3059.4559594 4410.12817176,-3059.731733 4402.04930938,-3063.40164594 C 4393.970447,-3067.07155889 4387.41179243,-3074.08833838 4384.27763551,-3082.42387745 C 4381.14347859,-3090.75941652 4381.47441947,-3100.30405294 4385.15046643,-3108.28250782 C 4388.82651339,-3116.2609627 4395.79728959,-3122.5678131 4403.99512595,-3125.36494648 C 4412.19296231,-3128.16207985 4421.50717138,-3127.41237878 4429.18377929,-3123.33114261 C 4436.8603872,-3119.24990645 4442.79572965,-3111.89088434 4445.22820509,-3103.3925486 C 4447.66068053,-3094.89421285 4446.55670965,-3085.36852061 4442.22188626,-3077.57946834 C 4437.88706287,-3069.79041607 4430.37834052,-3063.84014142 4421.88549182,-3061.44159265 C 4413.39264313,-3059.04304388 4404.02855278,-3060.22649195 4396.5371525,-3064.61697199 C 4389.04575221,-3069.00745202 4383.52723784,-3076.54501343 4381.61102239,-3084.99925557 C 4379.69480695,-3093.45349772 4381.40747285,-3102.71073674 4386.27106547,-3110.04494231 C 4391.1346581,-3117.37914788 4399.08595572,-3122.69204625 4407.82652349,-3124.42188536 C 4416.56709126,-3126.15172447 4425.98229349,-3124.27540167 4433.34599737,-3119.34597552 C 4440.70970125,-3114.41654936 4445.92549732,-3106.50013503 4447.4922349,-3097.9277558 C 4449.05897247,-3089.35537658 4446.95703134,-3080.24215853 4441.81884714,-3073.27773183 C 4436.68066294,-3066.31330514 4428.57529683,-3061.59179032 4419.88155921,-3060.52273687 C 4411.18782159,-3059.45368342 4402.02145236,-3062.05294817 4395.06041444,-3067.58869826 C 4388.09937653,-3073.12444835 4383.43572767,-3081.52459069 4382.41929108,-3090.35625512 C 4381.40285449,-3099.18791956 4384.04605935,-3108.33484416 4389.5523602,-3115.13811799 C 4395.05866105,-3121.94139182 4403.35333408,-3126.31122478 4411.98134644,-3126.97626331 C 4420.60935879,-3127.64130184 4429.45430058,-3124.59279073 4435.89950258,-3118.71864652 C 4442.34470457,-3112.8445023 4446.30288325,-3104.22232431 4446.5909426,-3095.36017622 C 4446.87900195,-3086.49802813 4443.49188876,-3077.5127067 4437.40322977,-3071.01009933 C 4431.31457079,-3064.50749196 4422.60464994,-3060.57262338 4413.81470291,-3060.32874683 C 4405.02475587,-3060.08487027 4396.27161948,-3063.53359419 4390.12046422,-3069.63714839 C 4383.96930895,-3075.74070258 4380.50250204,-3084.4163483 4380.74913994,-3093.10068867 C 4380.99577784,-3101.78502904 4384.95367161,-3110.36131931 4391.48792724,-3116.30277044 C 4398.02218286,-3122.24422156 4407.04735461,-3125.47108692 4415.9507989,-3125.03197443 C 4424.85424318,-3124.59286194 4433.51915765,-3120.49352145 4439.43893891,-3113.93745235 C 4445.35872018,-3107.38138324 4448.45616657,-3098.45633912 4447.84994305,-3089.78846195 C 4447.24371953,-3081.12058477 4442.94311169,-3072.82627096 4436.22387109,-3067.35554451 C 4429.50463049,-3061.88481807 4420.45685029,-3059.31192957 4411.73508524,-3060.41775411 C 4403.01332019,-3061.52357865 4394.73368304,-3066.29504173 4389.31468455,-3073.36473909 C 4383.89568606,-3080.43443644 4381.40887099,-3089.70986963 4382.56713482,-3098.50206397 C 4383.72539865,-3107.29425831 4388.51224161,-3115.48747692 4395.50390335,-3120.70185717 C 4402.49556509,-3125.91623743 4411.59756281,-3128.08312548 4420.11864556,-3126.57573545 C 4428.63972831,-3125.06834542 4436.46490864,-3119.90682083 4441.27589305,-3112.59733252 C 4446.08687745,-3105.28784421 4447.81812159,-3095.92708518 4445.93811633,-3087.23922323 C 4444.05811108,-3078.55136128 4438.5906439,-3070.65087471 4431.1180399,-3065.82623516 C 4423.64543589,-3061.0015956 4414.26638893,-3059.31550661 4405.71791672,-3061.23324281 C 4397.16944451,-3063.15097901 4389.56517168,-3068.64539399 4385.13411852,-3076.08016136 C 4380.70306537,-3083.51492873 4379.50471747,-3092.78960127 4381.90443459,-3101.16551067 C 4384.3041517,-3109.54142006 4390.27110357,-3116.90592447 4398.08255854,-3121.08679568 C 4405.89401351,-3125.26766689 4415.4475359,-3126.2085784 4423.97589009,-3123.62699369 C 4432.50424428,-3121.04540899 4439.89561755,-3114.97557814 4444.01603659,-3107.1975535 C 4448.13645562,-3099.41952886 4448.93265474,-3090.03731909 4446.19662925,-3081.8108299 C 4443.46060376,-3073.58434072 4437.22997094,-3066.62409698 4429.34519538,-3062.98978227 C 4421.46041982,-3059.35546756 4412.02709921,-3059.09690358 4403.81259499,-3062.3178088 C 4395.59809077,-3065.53871401 4388.71176783,-3072.19787804 4385.16446206,-3080.37556734 C 4381.61715629,-3088.55325664 4381.45551426,-3098.1422337 4384.71210059,-3106.36178288 C 4387.96868692,-3114.58133207 4394.59908891,-3121.32333413 4402.64013256,-3124.63254315 C 4410.68117621,-3127.94175218 4420.02441931,-3127.77485787 4427.90802404,-3124.18792425 C 4435.79162878,-3120.60099062 4442.10908777,-3113.64182431 4444.98325717,-3105.34257471 C 4447.85742657,-3097.04332511 4447.24852652,-3087.51385151 4443.30975922,-3079.52768652 C 4439.37099191,-3071.54152153 4432.15353151,-3065.20380914 4423.75173999,-3062.34576317 C 4415.34994847,-3059.48771721 4405.87488022,-3060.14588061 4398.09164818,-3064.09961467 C 4390.30841613,-3068.05334873 4384.3204653,-3075.24842317 4381.88389045,-3083.55090945 C 4379.44731559,-3091.85339573 4380.59507074,-3101.15130379 4385.00606082,-3108.69916677 C 4389.4170509,-3116.24702975 4397.03369068,-3121.94322088 4405.65056031,-3124.10364981 C 4414.26742994,-3126.26407874 4423.77137973,-3124.8592959 4431.40967867,-3120.29310004 C 4439.04797761,-3115.72690417 4444.72065295,-3108.05994565 4446.79661145,-3099.53958621 C 4448.87256996,-3091.01922678 4447.3257424,-3081.75935001 4442.63367878,-3074.48406776 C 4437.94161516,-3067.20878551 4430.16795297,-3062.01596921 4421.60463737,-3060.44816441 C 4413.04132178,-3058.88035961 4403.80297676,-3060.95989827 4396.59991512,-3066.10638487 C 4389.39685349,-3071.25287147 4384.32498542,-3079.3994806 4382.86424886,-3088.19126173 C 4381.40351229,-3096.98304285 4383.57279718,-3106.30458951 4388.72265378,-3113.4534345 C 4393.87251039,-3120.60227949 4401.93334075,-3125.4845466 4410.52343663,-3126.68913655 C 4419.11353251,-3127.8937265 4428.11714793,-3125.4053257 4434.87181798,-3119.95925618 C 4441.62648803,-3114.51318667 4446.04072297,-3106.18198624 4446.79425021,-3097.39925275 C 4447.54777746,-3088.61651926 4444.62902701,-3079.49854355 4438.86704859,-3072.69845656 C 4433.10507017,-3065.89836956 4424.57529121,-3061.50553747 4415.75604975,-3060.78211451 C 4406.93680829,-3060.05869154 4397.94471185,-3063.01282481 4391.40355889,-3068.75208942 C 4384.86240593,-3074.49135403 4380.85911869,-3082.93776768 4380.56909199,-3091.59126794 C 4380.2790653,-3100.24476819 4383.7066987,-3108.98869563 4389.86381925,-3115.23967459 C 4396.02093981,-3121.49065355 4404.82673438,-3125.16430907 4413.72784399,-3125.16833186 C 4422.6289536,-3125.17235466 4431.50844745,-3121.50598075 4437.79630636,-3115.23473605 C 4444.08416528,-3108.96349134 4447.69838075,-3100.17070763 4447.61015181,-3091.43315595 C 4447.52192286,-3082.69560427 4443.73396938,-3074.13005739 4437.37958056,-3068.25747066 C 4431.02519174,-3062.38488393 4422.19011816,-3059.28446942 4413.4768672,-3059.88654922 C 4404.76361625,-3060.48862903 4396.28880642,-3064.7866702 4390.53934497,-3071.55115751 C 4384.78988353,-3078.31564481 4381.84234415,-3087.45822937 4382.55509968,-3096.33254457 C 4383.26785522,-3105.20685978 4387.63088275,-3113.69640125 4394.35285739,-3119.34214123 C 4401.07483202,-3124.9878812 4410.06524271,-3127.71593852 4418.67039191,-3126.74552199 C 4427.2755411,-3125.77510547 4435.37948259,-3121.11983452 4440.58299033,-3114.14904363 C 4445.78649806,-3107.17825273 4448.01871665,-3097.9847623 4446.59781762,-3089.25447075 C 4445.1769186,-3080.52417921 4440.12025725,-3072.37267978 4432.88242245,-3067.17031858 C 4425.64458765,-3061.96795739 4416.3206394,-3059.78284688 4407.62128464,-3061.23117596 C 4398.92192988,-3062.67950505 4390.96218133,-3067.74053111 4386.06377902,-3074.90536582 C 4381.1653767,-3082.07020053 4379.39339018,-3091.24189794 4381.27034986,-3099.70818219 C 4383.14730953,-3108.17446644 4388.64878864,-3115.82116856 4396.17982016,-3120.38595404 C 4403.71085167,-3124.95073951 4413.17234601,-3126.37166398 4421.81909061,-3124.21555293 C 4430.46583521,-3122.05944187 4438.18428296,-3116.35426651 4442.7441294,-3108.76209309 C 4447.30397584,-3101.16991968 4448.64619934,-3091.79165164 4446.40676934,-3083.37536902 C 4444.16733933,-3074.9590864 4438.37759206,-3067.61728828 4430.75652886,-3063.51286891 C 4423.13546566,-3059.40844954 4413.78568703,-3058.59709993 4405.4602998,-3061.33937634 C 4397.13491257,-3064.08165275 4389.94537566,-3070.34255228 4386.00253367,-3078.3182398 C 4382.05969167,-3086.29392731 4381.4160857,-3095.87994197 4384.25597234,-3104.30017231 C 4387.09585897,-3112.72040265 4393.38091915,-3119.86438478 4401.25745342,-3123.66679304 C 4409.13398769,-3127.46920129 4418.49612647,-3127.88067543 4426.58140697,-3124.79824178 C 4434.66668746,-3121.71580813 4441.36607899,-3115.18118123 4444.6913179,-3107.11358315 C 4448.01655681,-3099.04598507 4447.92177337,-3089.5528265 4444.40600513,-3081.40768686 C 4440.89023688,-3073.26254721 4433.99870612,-3066.57323574 4425.72287283,-3063.28227167 C 4417.44703954,-3059.99130759 4407.89577171,-3060.14137698 4399.84628854,-3063.66540998 C 4391.79680537,-3067.18944297 4385.35547466,-3074.03908488 4382.39975703,-3082.18210977 C 4379.4440394,-3090.32513465 4380.01316184,-3099.65158416 4383.94466116,-3107.40390298 C 4387.87616049,-3115.1562218 4395.11827941,-3121.22973848 4403.56675076,-3123.82242255 C 4412.01522211,-3126.41510663 4421.55875206,-3125.49124761 4429.42812495,-3121.30373975 C 4437.29749784,-3117.11623188 4443.38950755,-3109.72006903 4445.94973505,-3101.27208962 C 4448.50996255,-3092.82411022 4447.50598613,-3083.43660208 4443.26025843,-3075.86034881 C 4439.01453073,-3068.28409555 4431.58507674,-3062.62042177 4423.17066557,-3060.5412132 C 4414.7562544,-3058.46200463 4405.47004006,-3059.99601192 4398.04653087,-3064.71755481 C 4390.62302168,-3069.4390977 4385.16167933,-3077.28684409 4383.26768967,-3085.99265755 C 4381.37370001,-3094.69847101 4383.0723493,-3104.14817819 4387.86256511,-3111.60555034 C 4392.65278092,-3119.06292249 4400.47029993,-3124.43030413 4409.01303499,-3126.1621916 C 4417.55577005,-3127.89407907 4426.70898945,-3125.96865525 4433.77135885,-3120.96670794 C 4440.83372825,-3115.96476063 4445.70982426,-3107.95353871 4446.9448679,-3099.28430656 C 4448.17991155,-3090.61507441 4445.75583793,-3081.40324596 4440.35322008,-3074.34008522 C 4434.95060222,-3067.27692448 4426.63976225,-3062.45584768 4417.827441,-3061.27274044 C 4409.01511975,-3060.0896332 4399.81732184,-3062.55914184 4392.90784341,-3067.93554331 C 4385.99836499,-3073.31194478 4381.46840894,-3081.52224327 4380.63617981,-3090.13609335 C 4379.80395068,-3098.74994344 4382.68042775,-3107.65112364 4388.42803055,-3114.20650973 C 4394.17563335,-3120.76189581 4402.71844585,-3124.88273853 4411.57162623,-3125.33834741 C 4420.42480661,-3125.79395629 4429.4716774,-3122.57704928 4436.08834224,-3116.6114519 C 4442.70500707,-3110.64585451 4446.804924,-3102.01021365 4447.21654766,-3093.22403114 C 4447.62817132,-3084.43784862 4444.34766183,-3075.61791121 4438.3635709,-3069.34893493 C 4432.37947998,-3063.07995865 4423.77295721,-3059.44587805 4415.08717454,-3059.5247328 C 4406.40139187,-3059.60358755 4397.75311324,-3063.39542066 4391.69019102,-3069.81392639 C 4385.6272688,-3076.23243212 4382.23106549,-3085.19370452 4382.50252037,-3094.10379653 C 4382.77397526,-3103.01388854 4386.70956876,-3111.75590938 4393.15371282,-3117.80069484 C 4399.59785688,-3123.84548031 4408.46428678,-3127.11416583 4417.14401071,-3126.67531292 C 4425.82373464,-3126.23646 4434.20019859,-3122.09712778 4439.79934194,-3115.48587959 C 4445.39848529,-3108.8746314 4448.14434921,-3099.88012384 4447.20544709,-3091.14132442 C 4446.26654497,-3082.402525 4441.65373083,-3074.03577307 4434.68798926,-3068.48506862 C 4427.72224768,-3062.93436417 4418.49469425,-3060.27300398 4409.68029432,-3061.26495432 C 4400.8658944,-3062.25690466 4392.58068025,-3066.88787815 4387.23143183,-3073.77972085 C 4381.8821834,-3080.67156356 4379.53934862,-3089.73112052 4380.88119426,-3098.27955868 C 4382.22303989,-3106.82799684 4387.23162459,-3114.74996487 4394.44552673,-3119.69884978 C 4401.65942888,-3124.64773469 4410.98322701,-3126.55615772 4419.70356786,-3124.84076834 C 4428.42390871,-3123.12537896 4436.42588191,-3117.80777482 4441.39132151,-3110.42643206 C 4446.3567611,-3103.0450893 4448.22109054,-3093.69748777 4446.46688316,-3085.11144446 C 4444.71267578,-3076.52540115 4439.36490266,-3068.81504045 4432.01698373,-3064.24042333 C 4424.66906479,-3059.6658062 4415.42029194,-3058.28832797 4407.00175541,-3060.52576079 C 4398.58321889,-3062.76319361 4391.10812757,-3068.58686601 4386.78106671,-3076.315969 C 4382.45400584,-3084.04507198 4381.33324662,-3093.57826537 4383.75394784,-3102.15426166 C 4386.17464907,-3110.73025795 4392.10470083,-3118.23661068 4399.80494924,-3122.50570427 C 4407.50519765,-3126.77479785 4416.87266867,-3127.75138888 4425.15176906,-3125.17469112 C 4433.43086944,-3122.59799336 4440.51037446,-3116.50350465 4444.29570544,-3108.69185466 C 4448.08103643,-3100.88020467 4448.52036277,-3091.45601836 4445.45707611,-3083.18398451 C 4442.39378944,-3074.91195066 4435.86700341,-3067.90219947 4427.75771861,-3064.20168114 C 4419.64843381,-3060.50116281 4410.06297779,-3060.15856202 4401.78103595,-3063.25939077 C 4393.49909412,-3066.36021953 4386.6296157,-3072.8621371 4383.16514537,-3080.8395632 C 4379.70067504,-3088.81698931 4379.68658847,-3098.16232801 4383.11977549,-3106.11312834 C 4386.55296252,-3114.06392867 4393.38766172,-3120.51278936 4401.62814199,-3123.54411929 C 4409.86862227,-3126.57544921 4419.40580609,-3126.14737787 4427.4639049,-3122.36019813 C 4435.52200371,-3118.57301839 4441.99491662,-3111.47588792 4445.01187098,-3103.12796091 C 4448.02882534,-3094.78003391 4447.55116433,-3085.29164824 4443.74671282,-3077.43181342 C 4439.94226131,-3069.5719786 4432.86326374,-3063.44515865 4424.60968529,-3060.84808056 C 4416.35610684,-3058.25100247 4407.03928698,-3059.21875536 4399.41022604,-3063.48291167 C 4391.7811651,-3067.74706798 4385.94256999,-3075.25199574 4383.62019756,-3083.82496132 C 4381.29782512,-3092.39792691 4382.52327918,-3101.92636466 4386.94523146,-3109.65037855 C 4391.36718374,-3117.37439244 4398.92690267,-3123.19286949 4407.40840412,-3125.43205582 C 4415.88990557,-3127.67124214 4425.17982289,-3126.30289718 4432.54525453,-3121.75234805 C 4439.91068617,-3117.20179892 4445.25256151,-3109.53080062 4446.98472125,-3101.00125952 C 4448.71688099,-3092.47171842 4446.81480686,-3083.19780921 4441.80696937,-3075.90025055 C 4436.79913189,-3068.6026919 4428.75051208,-3063.37865103 4419.98738944,-3061.75259067 C 4411.2242668,-3060.12653031 4401.86166655,-3062.11953965 4394.61406791,-3067.13374603 C 4387.36646928,-3072.14795242 4382.32906214,-3080.11556239 4380.95833876,-3088.6821434 C 4379.58761538,-3097.24872441 4381.90109935,-3106.29884329 4387.21464818,-3113.1564285 C 4392.52819701,-3120.01401372 4400.77103575,-3124.58620651 4409.53542063,-3125.50651683 C 4418.29980551,-3126.42682715 4427.46968975,-3123.68146636 4434.37675433,-3118.04875147 C 4441.28381891,-3112.41603658 4445.83727456,-3103.9696755 4446.72796962,-3095.16359873 C 4447.61866469,-3086.35752196 4444.83622692,-3077.30816189 4439.22284421,-3070.65607196 C 4433.60946149,-3064.00398202 4425.24144159,-3059.8375602 4416.59590942,-3059.37993346 C 4407.95037725,-3058.92230672 4399.14388624,-3062.18010412 4392.77811774,-3068.21484564 C 4386.41234925,-3074.24958716 4382.57320523,-3082.98208762 4382.40141586,-3091.88043342 C 4382.22962649,-3100.77877923 4385.72818744,-3109.72607635 4391.88067383,-3116.13246681 C 4398.03316022,-3122.53885727 4406.75782003,-3126.32075578 4415.49781485,-3126.40029839 C 4424.23780966,-3126.479841 4432.87633421,-3122.85751581 4438.87108035,-3116.61815023 C 4444.86582648,-3110.37878464 4448.1359571,-3101.60659914 4447.70149227,-3092.88570046 C 4447.26702743,-3084.16480179 4443.13227037,-3075.61191016 4436.47896045,-3069.73677909 C 4429.82565052,-3063.86164802 4420.74065766,-3060.7425229 4411.85349752,-3061.28798148 C 4402.96633737,-3061.83344006 4394.39368518,-3066.03568489 4388.61888638,-3072.65043507 C 4382.84408758,-3079.26518524 4379.94274013,-3088.20335607 4380.74633882,-3096.82653506 C 4381.54993751,-3105.44971406 4386.04708201,-3113.64171515 4392.91470462,-3118.97754662 C 4399.78232724,-3124.31337809 4408.92897996,-3126.72042431 4417.6824688,-3125.46570335 C 4426.43595763,-3124.21098239 4434.68038075,-3119.30963897 4440.01820316,-3112.17081691 C 4445.35602557,-3105.03199485 4447.71733285,-3095.74943705 4446.43438203,-3087.02173986 C 4445.15143121,-3078.29404266 4440.24276497,-3070.23659583 4433.17269211,-3065.19972527 C 4426.10261926,-3060.16285471 4416.96682518,-3058.21347196 4408.46708064,-3059.92601244 C 4399.9673361,-3061.63855292 4392.21825518,-3066.99077704 4387.51212778,-3074.43138883 C 4382.80600038,-3081.87200063 4381.20665107,-3091.30311334 4383.19946033,-3099.98840386 C 4385.19226959,-3108.67369438 4390.75143852,-3116.49910285 4398.25762145,-3121.20302877 C 4405.76380437,-3125.9069547 4415.11724172,-3127.42845985 4423.57711878,-3125.35105697 C 4432.03699583,-3123.27365409 4439.49023358,-3117.62652407 4443.74133125,-3110.08693933 C 4447.99242892,-3102.5473546 4448.98374432,-3093.21683179 4446.40206433,-3084.84284359 C 4443.82038434,-3076.4688554 4437.69857554,-3069.16350727 4429.79977599,-3065.07152942 C 4421.90097644,-3060.97955156 4412.3286242,-3060.15546898 4403.85483317,-3062.83634455 C 4395.38104214,-3065.51722013 4388.11698872,-3071.66685004 4384.16313067,-3079.47116088 C 4380.20927262,-3087.27547172 4379.61698484,-3096.62955467 4382.54214592,-3104.77330399 C 4385.46730701,-3112.91705332 4391.87029454,-3119.74066056 4399.87040328,-3123.21951736 C 4407.87051202,-3126.69837415 4417.36122907,-3126.78456726 4425.56968939,-3123.42418163 C 4433.7781497,-3120.063796 4440.5957017,-3113.29998694 4444.04230381,-3105.08684391 C 4447.48890592,-3096.87370087 4447.51980168,-3087.31925788 4444.14911172,-3079.20166318 C 4440.77842175,-3071.08406849 4434.05246089,-3064.51059593 4425.9672668,-3061.39737 C 4417.8820727,-3058.28414407 4408.54683441,-3058.67248701 4400.7216788,-3062.45283057 C 4392.89652319,-3066.23317413 4386.68709061,-3073.35577176 4383.93517966,-3081.75132747 C 4381.1832687,-3090.14688319 4381.92670797,-3099.70480706 4385.9653929,-3107.65167187 C 4390.00407783,-3115.59853667 4397.28499426,-3121.83010545 4405.68502414,-3124.55112507 C 4414.08505401,-3127.2721447 4423.49254738,-3126.44805453 4431.15087305,-3122.34867362 C 4438.80919872,-3118.24929271 4444.61594034,-3110.93069929 4446.85735143,-3102.55922535 C 4449.09876252,-3094.18775142 4447.74393474,-3084.87597982 4443.16612156,-3077.36589676 C 4438.58830838,-3069.8558137 4430.84692994,-3064.24803253 4422.17900008,-3062.19058616 C 4413.51107022,-3060.13313979 4404.03025834,-3061.65348885 4396.48189424,-3066.30273045 C 4388.93353014,-3070.95197204 4383.41647971,-3078.66771816 4381.52003875,-3087.17765974 C 4379.62359778,-3095.68760132 4381.37177238,-3104.87744289 4386.23563674,-3112.0351347 C 4391.09950109,-3119.19282651 4399.01364318,-3124.22167714 4407.65520355,-3125.62221259 C 4416.29676392,-3127.02274804 4425.55069675,-3124.77470195 4432.71341856,-3119.50714281 C 4439.87614037,-3114.23958368 4444.85291052,-3106.02103699 4446.2022885,-3097.23123917 C 4447.55166648,-3088.44144136 4445.25679415,-3079.1960974 4440.0122971,-3072.18291512 C 4434.76780005,-3065.16973284 4426.64491942,-3060.48129466 4418.04842273,-3059.48217597 C 4409.45192603,-3058.48305729 4400.49780391,-3061.18645743 4393.83467106,-3066.80543714 C 4387.17153821,-3072.42441684 4382.88957719,-3080.88477111 4382.26662066,-3089.72578485 C 4381.64366413,-3098.56679859 4384.68922027,-3107.67195619 4390.52959976,-3114.40030694 C 4396.36997925,-3121.12865769 4404.92820089,-3125.39217392 4413.70741523,-3125.97144217 C 4422.48662958,-3126.55071043 4431.37014257,-3123.43966071 4437.75463635,-3117.5772619 C 4444.13913014,-3111.71486309 4447.9391335,-3103.18064596 4448.02805884,-3094.49662628 C 4448.11698417,-3085.81260661 4444.49255656,-3077.09552486 4438.19209997,-3070.91336479 C 4431.89164337,-3064.73120472 4422.9974934,-3061.16691498 4414.08395751,-3061.27061586 C 4405.17042161,-3061.37431675 4396.35443639,-3065.14472024 4390.18680756,-3071.47457182 C 4384.01917872,-3077.8044234 4380.58040496,-3086.60897872 4380.85169152,-3095.2973501 C 4381.12297807,-3103.98572147 4385.09949485,-3112.44123985 4391.60031728,-3118.16671379 C 4398.10113972,-3123.89218773 4407.03908015,-3126.80997788 4415.79172225,-3126.03829312 C 4424.54436434,-3125.26660836 4432.99518461,-3120.81407829 4438.67558521,-3113.9547894 C 4444.3559858,-3107.09550052 4447.19094466,-3097.91915229 4446.36570164,-3089.08572779 C 4445.54045861,-3080.25230329 4441.06708347,-3071.87808785 4434.27761787,-3066.39590262 C 4427.48815227,-3060.91371739 4418.4743893,-3058.3957787 4409.90176298,-3059.5715876 C 4401.32913665,-3060.7473965 4393.31332009,-3065.60122034 4388.22838574,-3072.71691956 C 4383.14345139,-3079.83261878 4381.05858782,-3089.11607825 4382.60877095,-3097.86574755 C 4384.15895408,-3106.61541685 4389.32478389,-3114.71599546 4396.61219248,-3119.8204661 C 4403.89960106,-3124.92493675 4413.21235811,-3126.96687343 4421.83284191,-3125.37688273 C 4430.45332571,-3123.78689203 4438.26695371,-3118.58776053 4442.98344962,-3111.32941656 C 4447.69994553,-3104.0710726 4449.25602667,-3094.8516165 4447.1816628,-3086.39356061 C 4445.10729893,-3077.93550472 4439.42899231,-3070.35258363 4431.78501883,-3065.88093289 C 4424.14104535,-3061.40928215 4414.63161275,-3060.10909635 4406.01105627,-3062.36803338 C 4397.3904998,-3064.62697042 4389.77185868,-3070.41507223 4385.35560337,-3078.03471859 C 4380.93934805,-3085.65436495 4379.78267958,-3095.00365403 4382.19907369,-3103.3323125 C 4384.61546779,-3111.66097097 4390.5715591,-3118.85711487 4398.30721211,-3122.79203771 C 4406.04286512,-3126.72696055 4415.45446585,-3127.3468418 4423.78100797,-3124.44224386 C 4432.10755008,-3121.53764593 4439.23817829,-3115.1455715 4443.09057455,-3107.10760541 C 4446.94297081,-3099.06963932 4447.46643009,-3089.49116041 4444.52252232,-3081.14981262 C 4441.57861455,-3072.80846483 4435.20759304,-3065.81398764 4427.29673871,-3062.19549958 C 4419.38588438,-3058.57701151 4410.04190759,-3058.38193705 4402.02686083,-3061.66012195 C 4394.01181407,-3064.93830684 4387.43395323,-3071.64605159 4384.24661409,-3079.82477114 C 4381.05927494,-3088.00349069 4381.30640328,-3097.54492911 4384.94064902,-3105.67205296 C 4388.57489476,-3113.79917681 4395.54913464,-3120.404967 4403.84017145,-3123.57977182 C 4412.13120827,-3126.75457665 4421.62946094,-3126.45763951 4429.56303293,-3122.80390658 C 4437.49660492,-3119.15017366 4443.76005133,-3112.18988448 4446.51666912,-3103.98827091 C 4449.27328691,-3095.78665733 4448.48586469,-3086.45436756 4444.37006642,-3078.74692832 C 4440.25426815,-3071.03948909 4432.86375226,-3065.06064992 4424.33777618,-3062.5772022 C 4415.81180011,-3060.09375447 4406.26230444,-3061.1394447 4398.45534661,-3065.41554237 C 4390.64838878,-3069.69164004 4384.68618513,-3077.14135381 4382.28454304,-3085.58088636 C 4379.88290095,-3094.02041891 4381.07222205,-3103.33696188 4385.47956045,-3110.78982322 C 4389.88689886,-3118.24268457 4397.45240464,-3123.73163063 4405.94503787,-3125.62747016 C 4414.4376711,-3127.52330969 4423.74374805,-3125.79934706 4431.13313798,-3120.9319385 C 4438.52252792,-3116.06452993 4443.89684201,-3108.11678841 4445.68764855,-3099.38547706 C 4447.4784551,-3090.65416572 4445.66247337,-3081.25388662 4440.78577886,-3073.91014358 C 4435.90908436,-3066.56640053 4428.03764128,-3061.37566239 4419.49774437,-3059.83928508 C 4410.95784745,-3058.30290777 4401.8645749,-3060.44061851 4394.90662472,-3065.61970493 C 4387.94867455,-3070.79879134 4383.22024064,-3078.95026718 4382.13352818,-3087.69312087 C 4381.04681572,-3096.43597456 4383.61782692,-3105.65444575 4389.11925835,-3112.66599917 C 4394.62068978,-3119.67755259 4402.98057995,-3124.39000902 4411.77029917,-3125.44769419 C 4420.56001839,-3126.50537936 4429.66335187,-3123.89569964 4436.42395392,-3118.41029499 C 4443.18455596,-3112.92489035 4447.5125851,-3104.63836612 4448.13762909,-3096.0040021 C 4448.76267309,-3087.36963809 4445.67587581,-3078.50383916 4439.76568372,-3072.02563979 C 4433.85549164,-3065.54744042 4425.19943312,-3061.54423818 4416.30705533,-3061.20476563 C 4407.41467753,-3060.86529308 4398.40279511,-3064.19477652 4391.88016328,-3070.22626204 C 4385.35753145,-3076.25774757 4381.4092818,-3084.9110928 4381.16195158,-3093.6503255 C 4380.91462135,-3102.38955819 4384.36995445,-3111.09788324 4390.49198427,-3117.21256929 C 4396.6140141,-3123.32725534 4405.32008105,-3126.76586981 4414.04542423,-3126.49913544 C 4422.77076742,-3126.23240107 4431.3986075,-3122.26238988 4437.39726154,-3115.72263761 C 4443.39591557,-3109.18288535 4446.68549499,-3100.15875134 4446.30754821,-3091.26194434 C 4445.92960143,-3082.36513733 4441.88969757,-3073.71246089 4435.38461759,-3067.81067504 C 4428.87953762,-3061.90888918 4419.99690733,-3058.83528113 4411.35888842,-3059.47174801 C 4402.72086951,-3060.1082149 4394.44384544,-3064.44557966 4388.97768512,-3071.20752514 C 4383.5115248,-3077.96947063 4380.93057756,-3087.06595461 4382.01870765,-3095.83946212 C 4383.10683775,-3104.61296964 4387.85111654,-3112.94733258 4394.88835631,-3118.41870013 C 4401.92559608,-3123.89006768 4411.16340525,-3126.42674893 4419.91628061,-3125.3096876 C 4428.66915598,-3124.19262627 4436.82137287,-3119.4381583 4441.99487625,-3112.46547507 C 4447.16837962,-3105.49279183 4449.2944404,-3096.39628318 4447.74692829,-3087.86622523 C 4446.19941617,-3079.33616728 4440.99837547,-3071.48757734 4433.65086683,-3066.64186102 C 4426.30335819,-3061.7961447 4416.90602988,-3060.01898345 4408.1853199,-3061.8477844 C 4399.46460991,-3063.67658535 4391.53504929,-3069.08773132 4386.68871277,-3076.5051872 C 4381.84237625,-3083.92264308 4380.1420965,-3093.24782961 4382.05666906,-3101.74819807 C 4383.97124162,-3110.24856652 4389.47365168,-3117.81049926 4396.92897094,-3122.20669205 C 4404.3842902,-3126.60288485 4413.69212297,-3127.77376536 4422.11163551,-3125.35358087 C 4430.53114805,-3122.93339639 4437.94962933,-3116.95286519 4442.1892471,-3109.1337884 C 4446.42886487,-3101.31471162 4447.43313016,-3091.75946679 4444.91225976,-3083.23516231 C 4442.39138936,-3074.71085783 4436.37945862,-3067.32934205 4428.65025105,-3063.22544147 C 4420.92104349,-3059.12154088 4411.57846885,-3058.34862633 4403.37926562,-3061.11542666 C 4395.18006239,-3063.88222699 4388.23477669,-3070.15122638 4384.60361923,-3078.08092366 C 4380.97246178,-3086.01062094 4380.70537179,-3095.49543987 4383.9091936,-3103.76424114 C 4387.1130154,-3112.03304242 4393.74667636,-3118.97637179 4401.89416757,-3122.57738601 C 4410.04165877,-3126.17840023 4419.59581949,-3126.39028878 4427.7785841,-3123.17421495 C 4435.96134871,-3119.95814111 4442.66457642,-3113.35836294 4445.93417721,-3105.33399783 C 4449.203778,-3097.30963273 4448.99634946,-3087.96906056 4445.36852543,-3080.07396886 C 4441.74070141,-3072.17887715 4434.74019954,-3065.83583659 4426.4005914,-3062.92573861 C 4418.06098325,-3060.01564063 4408.49211449,-3060.57841812 4400.47061475,-3064.466827 C 4392.44911502,-3068.35523587 4386.0802141,-3075.51826103 4383.19934763,-3083.86727865 C 4380.31848116,-3092.21629627 4380.96233615,-3101.64033498 4384.9138292,-3109.37792254 C 4388.86532226,-3117.1155101 4396.07034244,-3123.06317576 4404.39578854,-3125.46593958 C 4412.72123465,-3127.8687034 4422.05513612,-3126.69351064 4429.6490317,-3122.2610547 C 4437.24292728,-3117.82859875 4442.99508869,-3110.19636616 4445.21523829,-3101.56943537 C 4447.43538789,-3092.94250457 4446.09390068,-3083.43399961 4441.58734572,-3075.79735308 C 4437.08079076,-3068.16070654 4429.46965798,-3062.49595872 4420.99564723,-3060.43562071 C 4412.52163648,-3058.37528271 4403.29856527,-3059.94554086 4396.04820613,-3064.66952659 C 4388.79784699,-3069.39351232 4383.61812404,-3077.20767433 4382.05265558,-3085.81840671 C 4380.48718712,-3094.42913909 4382.55843351,-3103.72180611 4387.68905673,-3110.98149091 C 4392.81967996,-3118.24117571 4400.94297611,-3123.37184779 4409.70707847,-3124.88703593 C 4418.47118083,-3126.40222406 4427.76072622,-3124.28286442 4434.87507377,-3119.17222869 C 4441.98942131,-3114.06159296 4446.83464284,-3106.0291416 4448.00028914,-3097.45318309 C 4449.16593544,-3088.87722458 4446.63659196,-3079.87347634 4441.14827007,-3073.10507337 C 4435.65994818,-3066.33667041 4427.28511483,-3061.89519561 4418.45946222,-3061.10515437 C 4409.63380961,-3060.31511313 4400.47364901,-3063.18823627 4393.63602467,-3068.90128727 C 4386.79840032,-3074.61433826 4382.3727935,-3083.0920297 4381.62604435,-3091.86107477 C 4380.87929521,-3100.63011983 4383.81970163,-3109.57395974 4389.55822389,-3116.07162536 C 4395.29674616,-3122.56929099 4403.75550135,-3126.53380565 4412.43455339,-3126.79044677 C 4421.11360543,-3127.0470879 4429.89627991,-3123.59134954 4436.19540108,-3117.41119825 C 4442.49452224,-3111.23104696 4446.22558557,-3102.40721798 4446.28967386,-3093.49344331 C 4446.35376215,-3084.57966863 4442.74993141,-3075.69288801 4436.53669804,-3069.40462146 C 4430.32346466,-3063.11635491 4421.58402168,-3059.50870589 4412.89020532,-3059.61229147 C 4404.19638897,-3059.71587705 4395.66494072,-3063.52809798 4389.81526862,-3069.91610162 C 4383.96559652,-3076.30410526 4380.87699206,-3085.18220471 4381.48122555,-3093.94549274 C 4382.08545904,-3102.70878076 4386.37612839,-3111.24059226 4393.12650653,-3117.04863185 C 4399.87688468,-3122.85667145 4408.99872091,-3125.86421916 4417.84798204,-3125.20601645 C 4426.69724318,-3124.54781373 4435.1574332,-3120.23370831 4440.77057535,-3113.54914051 C 4446.38371749,-3106.86457272 4449.07585338,-3097.89994025 4448.06651297,-3089.30630185 C 4447.05717255,-3080.71266345 4442.35987404,-3072.60597174 4435.34495867,-3067.38688866 C 4428.33004331,-3062.16780559 4419.09028553,-3059.90730424 4410.31444894,-3061.29175102 C 4401.53861236,-3062.6761978 4393.34234555,-3067.68839741 4388.10066357,-3074.87923316 C 4382.85898159,-3082.0700689 4380.64013568,-3091.34459514 4382.06528178,-3099.99637624 C 4383.49042788,-3108.64815734 4388.53897224,-3116.56219444 4395.70504738,-3121.41883216 C 4402.87112252,-3126.27546989 4412.05785551,-3128.00956133 4420.55230858,-3126.09899157 C 4429.04676165,-3124.18842181 4436.73471602,-3118.65751423 4441.3493041,-3111.1014167 C 4445.96389217,-3103.54531917 4447.44301792,-3094.06307047 4445.34666677,-3085.40105199 C 4443.25031561,-3076.73903352 4437.6062828,-3069.01083605 4430.07003489,-3064.44898554 C 4422.53378699,-3059.88713503 4413.2061164,-3058.55076928 4404.83097104,-3060.80594232 C 4396.45582568,-3063.06111536 4389.14570789,-3068.87660644 4385.0626722,-3076.53341881 C 4380.9796365,-3084.19023118 4380.17947371,-3093.58579963 4382.92437064,-3101.96380876 C 4385.66926757,-3110.34181789 4391.92434596,-3117.59072778 4399.88810515,-3121.59361191 C 4407.85186433,-3125.59649605 4417.41991261,-3126.30064753 4425.81765798,-3123.5147669 C 4434.21540335,-3120.72888627 4441.33235609,-3114.49112469 4445.10356213,-3106.64977206 C 4448.87476816,-3098.80841942 4449.25077147,-3089.46926157 4446.12878767,-3081.39294098 C 4443.00680387,-3073.31662039 4436.42845461,-3066.61220807 4428.31446462,-3063.27006793 C 4420.20047464,-3059.92792779 4410.65823881,-3059.99406488 4402.46502389,-3063.47408599 C 4394.27180897,-3066.9541071 4387.53551324,-3073.80294056 4384.20397347,-3082.03408227 C 4380.8724337,-3090.26522399 4380.98849149,-3099.76988965 4384.49012478,-3107.7743063 C 4387.99175807,-3115.77872295 4394.83075065,-3122.17650328 4402.97736127,-3125.09163902 C 4411.1239719,-3128.00677476 4420.46828405,-3127.39994582 4428.25125331,-3123.43397572 C 4436.03422257,-3119.46800561 4442.15109469,-3112.19455968 4444.79469071,-3103.71864143 C 4447.43828674,-3095.24272319 4446.57272979,-3085.67560733 4442.44404453,-3077.78850684 C 4438.31535927,-3069.90140635 4430.97837608,-3063.79760367 4422.58390804,-3061.23433715 C 4414.18943999,-3058.67107064 4404.84969598,-3059.68089193 4397.31215652,-3063.94337564 C 4389.77461706,-3068.20585936 4384.14064225,-3075.6630825 4382.08185782,-3084.11568794 C 4380.02307339,-3092.56829339 4381.56834254,-3101.90312989 4386.29359363,-3109.38165184 C 4391.01884472,-3116.86017379 4398.86285582,-3122.38280669 4407.55921465,-3124.33772169 C 4416.25557349,-3126.2926367 4425.69014294,-3124.65437002 4433.12738607,-3119.91699888 C 4440.56462921,-3115.17962773 4445.90683338,-3107.40726297 4447.60832466,-3098.89720963 C 4449.30981595,-3090.38715629 4447.3486707,-3081.25409559 4442.30593936,-3074.19836731 C 4437.26320801,-3067.14263903 4429.20606295,-3062.25973772 4420.48791517,-3061.00706478 C 4411.76976739,-3059.75439183 4402.50604859,-3062.15015715 4395.39253319,-3067.51833311 C 4388.27901779,-3072.88650907 4383.40924137,-3081.15690682 4382.18490903,-3089.9270816 C 4380.96057669,-3098.69725637 4383.39649889,-3107.85125337 4388.751876,-3114.71790307 C 4394.10725311,-3121.58455276 4402.30920948,-3126.07260298 4410.92920933,-3126.86482034 C 4419.54920918,-3127.6570377 4428.47103874,-3124.74234226 4435.0592693,-3118.95882456 C 4441.64749986,-3113.17530687 4445.81327018,-3104.59881021 4446.32028131,-3095.71560245 C 4446.82729243,-3086.8323947 4443.66808939,-3077.75916851 4437.75980311,-3071.12262791 C 4431.85151684,-3064.4860873 4423.27265086,-3060.37287914 4414.53738525,-3059.95780647 C 4405.80211964,-3059.5427338 4397.02719676,-3062.82977193 4390.79483405,-3068.83219629 C 4384.56247133,-3074.83462065 4380.95666677,-3083.47136269 4381.05561637,-3092.19794555 C 4381.15456598,-3100.92452842 4384.95842969,-3109.62415628 4391.38228546,-3115.74414153 C 4397.80614122,-3121.86412679 4406.76617142,-3125.32296687 4415.66942368,-3125.11268561 C 4424.57267595,-3124.90240434 4433.30226097,-3121.02634045 4439.32891576,-3114.6333364 C 4445.35557055,-3108.24033235 4448.60034683,-3099.41652304 4448.13126474,-3090.7668595 C 4447.66218264,-3082.11719596 4443.48619259,-3073.75821658 4436.83239451,-3068.16376985 C 4430.17859644,-3062.56932313 4421.13559395,-3059.81546493 4412.34525365,-3060.73665215 C 4403.55491336,-3061.65783938 4395.13362729,-3066.24336415 4389.53067942,-3073.17648916 C 4383.92773154,-3080.10961418 4381.21656312,-3089.29933284 4382.16728426,-3098.07421293 C 4383.11800541,-3106.84909302 4387.71649293,-3115.09311714 4394.58919433,-3120.40136805 C 4401.46189573,-3125.70961896 4410.51575117,-3128.01157509 4419.0729646,-3126.62964028 C 4427.63017803,-3125.24770547 4435.5753709,-3120.19972144 4440.5588722,-3112.94796542 C 4445.54237349,-3105.69620941 4447.49666887,-3096.33605593 4445.8325229,-3087.58306587 C 4444.16837692,-3078.83007581 4438.90721644,-3070.7992096 4431.58119177,-3065.81218335 C 4424.25516709,-3060.82515711 4414.96164122,-3058.94667502 4406.42389917,-3060.69767351 C 4397.88615712,-3062.44867199 4390.21831369,-3067.80431218 4385.67866191,-3075.1726097 C 4381.13901013,-3082.54090722 4379.78903069,-3091.82262399 4382.04687952,-3100.28456765 C 4384.30472836,-3108.74651131 4390.14184664,-3116.27540639 4397.87839496,-3120.66111426 C 4405.61494329,-3125.04682213 4415.14964193,-3126.23091046 4423.72139419,-3123.87098095 C 4432.29314646,-3121.51105144 4439.78947281,-3115.63903855 4444.04195391,-3107.9877867 C 4448.29443502,-3100.33653484 4449.24772354,-3091.00891679 4446.64031436,-3082.75729481 C 4444.03290518,-3074.50567282 4437.90019382,-3067.44129034 4430.04380443,-3063.65920503 C 4422.18741504,-3059.87711972 4412.71194869,-3059.42927853 4404.38580818,-3062.47541242 C 4396.05966766,-3065.52154632 4388.99306999,-3072.02268032 4385.23892593,-3080.10158205 C 4381.48478186,-3088.18048378 4381.09193893,-3097.73090494 4384.15217996,-3105.97587406 C 4387.21242099,-3114.22084318 4393.6835609,-3121.05139199 4401.644121,-3124.47617715 C 4409.60468111,-3127.90096231 4418.94713033,-3127.87451705 4426.90923191,-3124.40052065 C 4434.87133349,-3120.92652426 4441.34562535,-3114.0506481 4444.41281277,-3105.76999902 C 4447.48000018,-3097.48934995 4447.09806059,-3087.91298934 4443.36132603,-3079.8197389 C 4439.62459148,-3071.72648846 4432.58205943,-3065.22253244 4424.28709819,-3062.18282274 C 4415.99213695,-3059.14311304 4406.5549988,-3059.60644967 4398.7409888,-3063.40856778 C 4390.9269788,-3067.2106859 4384.8405843,-3074.29946159 4382.27737642,-3082.57580607 C 4379.71416854,-3090.85215056 4380.70933634,-3100.20474644 4384.99486056,-3107.8796626 C 4389.28038479,-3115.55457876 4396.80073348,-3121.44900915 4405.38356469,-3123.83104911 C 4413.9663959,-3126.21308908 4423.49917225,-3125.05096009 4431.22135948,-3120.68875212 C 4438.94354671,-3116.32654415 4444.75396663,-3108.82282696 4446.97748541,-3100.38787128 C 4449.2010042,-3091.9529156 4447.80926478,-3082.70001941 4443.22690231,-3075.35968183 C 4438.64453983,-3068.01934426 4430.93322165,-3062.69068637 4422.35646221,-3060.96090387 C 4413.77970278,-3059.23112137 4404.4516859,-3061.12486042 4397.09767159,-3066.11672051 C 4389.74365728,-3071.1085806 4384.46093083,-3079.13370373 4382.78045363,-3087.86894799 C 4381.09997644,-3096.60419224 4383.04301107,-3105.93457832 4388.01787742,-3113.14751562 C 4392.99274378,-3120.36045292 4400.93178746,-3125.3607018 4409.4840305,-3126.69245301 C 4418.03627353,-3128.02420422 4427.08631396,-3125.66983359 4433.95747198,-3120.31415658 C 4440.82863001,-3114.95847956 4445.42795583,-3106.67219859 4446.38475787,-3097.86509598 C 4447.3415599,-3089.05799338 4444.64188898,-3079.84613367 4439.05823061,-3072.90168792 C 4433.47457224,-3065.95724217 4425.08049259,-3061.37111266 4416.32481421,-3060.45710743 C 4407.56913582,-3059.5431022 4398.56823967,-3062.31174409 4391.95978917,-3067.92425058 C 4385.35133867,-3073.53675707 4381.22378422,-3081.91692157 4380.7995528,-3090.58780313 C 4380.37532138,-3099.2586847 4383.6611483,-3108.10371761 4389.71878202,-3114.51748044 C 4395.77641574,-3120.93124326 4404.52675081,-3124.82770646 4413.43755909,-3125.05955787 C 4422.34836737,-3125.29140928 4431.30274855,-3121.85547325 4437.70940314,-3115.76114125 C 4444.11605773,-3109.66680924 4447.89130741,-3100.9956926 4447.95549621,-3092.29963572 C 4448.01968502,-3083.60357884 4444.37318038,-3074.99935298 4438.10034742,-3069.02766047 C 4431.82751445,-3063.05596796 4423.01250798,-3059.79772346 4414.24177466,-3060.23433287 C 4405.47104133,-3060.67094228 4396.86134528,-3064.79823334 4390.92777041,-3071.43728242 C 4384.99419555,-3078.07633151 4381.81513177,-3087.14036888 4382.30602213,-3096.00227291 C 4382.7969125,-3104.86417695 4386.95013497,-3113.40728346 4393.52732253,-3119.14935485 C 4400.1045101,-3124.89142624 4409.01669348,-3127.75678904 4417.62816021,-3126.91428812 C 4426.23962694,-3126.07178719 4434.43418724,-3121.53272136 4439.78546936,-3114.62113399 C 4445.13675148,-3107.70954663 4447.57202377,-3098.51683765 4446.35378295,-3089.71800447 C 4445.13554213,-3080.91917129 4440.27877255,-3072.63016843 4433.18711306,-3067.2531449 C 4426.09545357,-3061.87612137 4416.86253053,-3059.48112881 4408.18260673,-3060.74086254 C 4399.50268293,-3062.00059626 4391.49113161,-3066.89666293 4386.49614018,-3073.96780907 C 4381.50114875,-3081.03895521 4379.58970456,-3090.18957066 4381.33581484,-3098.71728544 C 4383.08192511,-3107.24500022 4388.46345418,-3115.03515308 4395.92896137,-3119.79097378 C 4403.39446856,-3124.54679448 4412.84612019,-3126.20430826 4421.54648735,-3124.27130533 C 4430.24685451,-3122.33830239 4438.08183629,-3116.84040507 4442.78766234,-3109.39032159 C 4447.49348839,-3101.94023811 4449.00910567,-3092.63761469 4446.91601228,-3084.2190706 C 4444.8229189,-3075.8005265 4439.15017953,-3068.3791414 4431.5750227,-3064.1495259 C 4423.99986587,-3059.91991041 4414.62377055,-3058.93980521 4406.19735444,-3061.52404715 C 4397.77093832,-3064.10828908 4390.40638526,-3070.22413699 4386.25445823,-3078.11082816 C 4382.1025312,-3085.99751934 4381.21791973,-3095.55168727 4383.84472473,-3104.00280126 C 4386.47152974,-3112.45391525 4392.57371616,-3119.69077565 4400.34266252,-3123.61334415 C 4408.11160888,-3127.53591265 4417.44249255,-3128.09271974 4425.577092,-3125.128079 C 4433.71169145,-3122.16343826 4440.54016043,-3115.71687828 4444.03583684,-3107.67056309 C 4447.53151325,-3099.6242479 4447.64634962,-3090.08467215 4444.32178748,-3081.82832425 C 4440.99722534,-3073.57197635 4434.27626837,-3066.70759442 4426.10800481,-3063.22049244 C 4417.93974124,-3059.73339046 4408.43211897,-3059.66847938 4400.35977602,-3063.0166875 C 4392.28743308,-3066.36489562 4385.75766035,-3073.08004767 4382.68508627,-3081.16863733 C 4379.61251218,-3089.257227 4380.03855114,-3098.61010961 4383.85327763,-3106.46573307 C 4387.66800412,-3114.32135653 4394.82176472,-3120.57400011 4403.24457508,-3123.376759 C 4411.66738544,-3126.17951789 4421.24867734,-3125.49439794 4429.21308996,-3121.51462909 C 4437.17750259,-3117.53486024 4443.42072506,-3110.31329192 4446.14472568,-3101.96696754 C 4448.86872629,-3093.62064316 4448.03881525,-3084.26113119 4443.92277734,-3076.64169611 C 4439.80673942,-3069.02226103 4432.46054953,-3063.24535236 4424.05107717,-3061.02441738 C 4415.64160481,-3058.80348239 4406.28142745,-3060.16954131 4398.71650527,-3064.75095824 C 4391.15158308,-3069.33237518 4385.48263992,-3077.06984157 4383.36431407,-3085.72811943 C 4381.24598822,-3094.3863973 4382.70591724,-3103.85185611 4387.30220439,-3111.37992089 C 4391.89849155,-3118.90798566 4399.56890274,-3124.39973562 4408.04596391,-3126.26574067 C 4416.52302507,-3128.13174572 4425.69249387,-3126.34789379 4432.84337774,-3121.44336041 C 4439.99426161,-3116.53882703 4445.02980019,-3108.57894621 4446.4479314,-3099.88867004 C 4447.86606261,-3091.19839388 4445.64637554,-3081.89278329 4440.41337843,-3074.67986999 C 4435.18038132,-3067.4669567 4427.00246481,-3062.4415985 4418.25501424,-3061.05102274 C 4409.50756367,-3059.66044698 4400.30623155,-3061.92167557 4393.33603738,-3067.14502312 C 4386.3658432,-3072.36837067 4381.71941652,-3080.48271787 4380.76033068,-3089.0851628 C 4379.80124484,-3097.68760774 4382.54279955,-3106.66217016 4388.19756414,-3113.35799208 C 4393.85232872,-3120.053814 4402.34617262,-3124.38060293 4411.21701165,-3125.05494689 C 4420.08785068,-3125.72929086 4429.21915672,-3122.74150894 4435.96723194,-3116.95857534 C 4442.71530716,-3111.17564174 4446.99202102,-3102.67439249 4447.57472974,-3093.9462975 C 4448.15743846,-3085.21820251 4445.03993677,-3076.37990874 4439.15934393,-3070.03217557 C 4433.2787511,-3063.68444239 4424.71451502,-3059.9128025 4415.98989775,-3059.84397427 C 4407.26528049,-3059.77514604 4398.49705174,-3063.41152129 4392.25797128,-3069.71718401 C 4386.01889082,-3076.02284673 4382.39204548,-3084.91555157 4382.43456871,-3093.82204513 C 4382.47709194,-3102.72853869 4386.18787661,-3111.53188855 4392.46643992,-3117.6812486 C 4398.74500323,-3123.83060865 4407.50673262,-3127.24539832 4416.16484124,-3126.94389291 C 4424.82294986,-3126.6423875 4433.26078699,-3122.62930824 4438.98143086,-3116.08608839 C 4444.70207472,-3109.54286855 4447.62779072,-3100.55664077 4446.87383745,-3091.75265975 C 4446.11988418,-3082.94867872 4441.69474488,-3074.44351793 4434.8682291,-3068.71100256 C 4428.04171332,-3062.97848719 4418.90340947,-3060.09378207 4410.10970614,-3060.87777304 C 4401.3160028,-3061.66176402 4392.98316776,-3066.10254582 4387.54210378,-3072.87270966 C 4382.1010398,-3079.6428735 4379.62403519,-3088.65072353 4380.83990418,-3097.23192459 C 4382.05577316,-3105.81312565 4386.94888312,-3113.8519801 4394.10227199,-3118.97141214 C 4401.25566085,-3124.09084418 4410.57526262,-3126.22153126 4419.3573816,-3124.72262683 C 4428.13950058,-3123.22372241 4436.26878885,-3118.11445522 4441.39473261,-3110.88253255 C 4446.52067637,-3103.65060988 4448.57672349,-3094.39214295 4446.98998315,-3085.82015875 C 4445.40324281,-3077.24817455 4440.19636885,-3069.47724338 4432.91781757,-3064.79582109 C 4425.63926629,-3060.1143988 4416.38708194,-3058.58585199 4407.88581586,-3060.68058427 C 4399.38454979,-3062.77531654 4391.74800057,-3068.46693893 4387.21780573,-3076.11818321 C 4382.68761089,-3083.76942748 4381.32412482,-3093.28014868 4383.52223644,-3101.89626574 C 4385.72034805,-3110.5123828 4391.4502755,-3118.12082604 4399.02074765,-3122.52037143 C 4406.5912198,-3126.91991682 4415.90043846,-3128.0532607 4424.20142491,-3125.6062149 C 4432.50241136,-3123.1591691 4439.6832655,-3117.16499591 4443.61485078,-3109.38478409 C 4447.54643606,-3101.60457227 4448.17481683,-3092.14190954 4445.28743737,-3083.76145243 C 4442.40005792,-3075.38099532 4436.03378139,-3068.1936834 4428.02638173,-3064.28774764 C 4420.01898207,-3060.38181188 4410.47575642,-3059.80811903 4402.1715709,-3062.71136745 C 4393.86738537,-3065.61461586 4386.91199595,-3071.95470885 4383.33327356,-3079.84851124 C 4379.75455117,-3087.74231363 4379.60001032,-3097.08318237 4382.91892711,-3105.10934315 C 4386.2378439,-3113.13550393 4392.98660992,-3119.73864253 4401.20530992,-3122.96176447 C 4409.42400992,-3126.18488641 4419.00440661,-3125.98389482 4427.16649735,-3122.40017751 C 4435.32858809,-3118.8164602 4441.96527289,-3111.89697913 4445.16276424,-3103.65909866 C 4448.36025559,-3095.42121819 4448.0776546,-3085.97443129 4444.42634402,-3078.08686618 C 4440.77503343,-3070.19930107 4433.80513104,-3063.97642357 4425.58094405,-3061.25373886 C 4417.35675707,-3058.53105415 4407.98890905,-3059.34587273 4400.23579381,-3063.48294437 C 4392.48267858,-3067.62001602 4386.4481424,-3075.02578356 4383.90508401,-3083.56143077 C 4381.36202561,-3092.09707799 4382.34436547,-3101.65069516 4386.56061878,-3109.45565013 C 4390.77687208,-3117.2606051 4398.17041062,-3123.21461867 4406.56320125,-3125.60054242 C 4414.95599187,-3127.98646616 4424.2352975,-3126.77378264 4431.66289177,-3122.33473636 C 4439.09048604,-3117.89569009 4444.56608715,-3110.29004195 4446.45950475,-3101.75038802 C 4448.35292236,-3093.2107341 4446.63733352,-3083.8507646 4441.78601314,-3076.40508866 C 4436.93469276,-3068.95941272 4429.01062931,-3063.52653498 4420.30739529,-3061.68135014 C 4411.60416127,-3059.83616529 4402.23631014,-3061.60212694 4394.92739457,-3066.43936541 C 4387.61847899,-3071.27660388 4382.46501535,-3079.11929558 4380.96764256,-3087.64465449 C 4379.47026977,-3096.1700134 4381.64881517,-3105.2629952 4386.86990867,-3112.23435573 C 4392.09100217,-3119.20571626 4400.28573163,-3123.96117276 4409.07110211,-3125.08435081 C 4417.85647259,-3126.20752886 4427.11670865,-3123.68226608 4434.16548463,-3118.23001725 C 4441.21426061,-3112.77776843 4445.95928637,-3104.47035165 4447.04026183,-3095.73123246 C 4448.12123728,-3086.99211328 4445.52541849,-3077.93745237 4440.04102101,-3071.22064439 C 4434.55662354,-3064.5038364 4426.25814981,-3060.21477317 4417.59863857,-3059.6231381 C 4408.93912734,-3059.03150304 4400.03499305,-3062.14625835 4393.50894984,-3068.07920695 C 4386.98290662,-3074.01215555 4382.92247764,-3082.68585062 4382.52295039,-3091.59048839 C 4382.12342313,-3100.49512617 4385.39020377,-3109.51388843 4391.36339462,-3116.03663818 C 4397.33658547,-3122.55938793 4405.93618669,-3126.5009025 4414.63127884,-3126.73287787 C 4423.32637098,-3126.96485325 4432.00019561,-3123.48542488 4438.09168625,-3117.33007243 C 4444.1831769,-3111.17471998 4447.60982528,-3102.42603549 4447.34095158,-3093.65106021 C 4447.07207789,-3084.87608493 4443.10962308,-3076.19163943 4436.58428074,-3070.13467882 C 4430.0589384,-3064.07771822 4421.05596569,-3060.72827375 4412.18461709,-3061.05164079 C 4403.31326849,-3061.37500783 4394.69033383,-3065.36579282 4388.82140792,-3071.83315691 C 4382.95248202,-3078.30052099 4379.9149258,-3087.15695585 4380.59027712,-3095.78306065 C 4381.26562844,-3104.40916546 4385.64481198,-3112.68855572 4392.45056491,-3118.17003897 C 4399.25631783,-3123.65152223 4408.39864809,-3126.26063484 4417.21729876,-3125.20900894 C 4426.03594943,-3124.15738303 4434.41470237,-3119.45778658 4439.92514827,-3112.46787058 C 4445.43559417,-3105.47795457 4448.00590653,-3096.28999192 4446.91209258,-3087.5850903 C 4445.81827863,-3078.88018867 4441.07652457,-3070.77405358 4434.10293298,-3065.64254704 C 4427.12934138,-3060.5110405 4418.01822469,-3058.42296586 4409.46039582,-3060.00401129 C 4400.90256694,-3061.58505671 4393.0130877,-3066.8152823 4388.11779062,-3074.18751783 C 4383.22249353,-3081.55975336 4381.38720874,-3090.97740589 4383.15616071,-3099.71299442 C 4384.92511268,-3108.44858296 4390.27486137,-3116.38753807 4397.6360459,-3121.23566746 C 4404.99723043,-3126.08379685 4414.27138715,-3127.77815449 4422.73022598,-3125.84794019 C 4431.18906481,-3123.9177259 4438.71897006,-3118.38983766 4443.09357881,-3110.89912146 C 4447.46818756,-3103.40840526 4448.62783034,-3094.05521683 4446.20513877,-3085.58347142 C 4443.7824472,-3077.11172602 4437.8080134,-3069.63421049 4430.00122323,-3065.33473993 C 4422.19443305,-3061.03526936 4412.65759012,-3059.97049598 4404.15615594,-3062.43723493 C 4395.65472176,-3064.90397387 4388.30056537,-3070.86831937 4384.22804514,-3078.56198132 C 4380.15552491,-3086.25564326 4379.41810508,-3095.5748005 4382.22431822,-3103.76466257 C 4385.03053135,-3111.95452465 4391.34295634,-3118.9045102 4399.3186762,-3122.55240212 C 4407.29439606,-3126.20029405 4416.82785524,-3126.49602005 4425.14435499,-3123.32809449 C 4433.46085473,-3120.16016893 4440.45085677,-3113.56951184 4444.09229147,-3105.46708654 C 4447.73372617,-3097.36466124 4447.97962956,-3087.8575398 4444.78611616,-3079.72021371 C 4441.59260276,-3071.58288761 4435.00379,-3064.92351221 4426.97621812,-3061.69463684 C 4418.94864624,-3058.46576146 4409.59064824,-3058.71087971 4401.66527292,-3062.37300232 C 4393.7398976,-3066.03512494 4387.35379358,-3073.06662851 4384.39291534,-3081.43330031 C 4381.43203711,-3089.79997212 4381.93648219,-3099.39199073 4385.76588497,-3107.43085675 C 4389.59528775,-3115.46972277 4396.69879903,-3121.85013492 4404.99391816,-3124.73392066 C 4413.28903728,-3127.6177064 4422.66487693,-3126.96805039 4430.36339525,-3122.99999594 C 4438.06191357,-3119.03194149 4443.97960903,-3111.79949495 4446.36184104,-3103.43624523 C 4448.74407305,-3095.07299552 4447.55767575,-3085.69090523 4443.12171715,-3078.04234613 C 4438.68575856,-3070.39378702 4431.0576123,-3064.58059553 4422.44052995,-3062.29961608 C 4413.82344761,-3060.01863663 4404.33051173,-3061.29967049 4396.7143369,-3065.7531645 C 4389.09816206,-3070.2066585 4383.45884115,-3077.77227808 4381.42898257,-3086.21321052 C 4379.39912399,-3094.65414295 4381.00501947,-3103.85662651 4385.76956242,-3111.10000872 C 4390.53410537,-3118.34339094 4398.39382399,-3123.52968098 4407.05307302,-3125.11270786 C 4415.71232204,-3126.69573473 4425.05645328,-3124.65289401 4432.36616413,-3119.5569498 C 4439.67587498,-3114.4610056 4444.85501997,-3106.37852541 4446.41137473,-3097.65697051 C 4447.96772949,-3088.93541562 4445.88206684,-3079.69009405 4440.79270268,-3072.61889634 C 4435.70333853,-3065.54769862 4427.67960987,-3060.74459792 4419.0979042,-3059.61900938 C 4410.51619854,-3058.49342085 4401.49222023,-3061.0608591 4394.69128605,-3066.58483883 C 4387.89035188,-3072.10881856 4383.40415257,-3080.51694898 4382.56274257,-3089.37222512 C 4381.72133257,-3098.22750126 4384.53661519,-3107.41360202 4390.19208842,-3114.27079699 C 4395.84756166,-3121.12799197 4404.26808503,-3125.56669904 4412.98580849,-3126.31687626 C 4421.70353196,-3127.06705347 4430.60194652,-3124.1202678 4437.06270186,-3118.36368809 C 4443.5234572,-3112.60710838 4447.45951714,-3104.11853284 4447.69605503,-3095.39908575 C 4447.93259293,-3086.67963866 4444.46498603,-3077.84602093 4438.27976977,-3071.49012474 C 4432.09455351,-3065.13422855 4423.27237101,-3061.34069467 4414.36584129,-3061.21542857 C 4405.45931157,-3061.09016246 4396.58536753,-3064.634289 4390.31551068,-3070.79608851 C 4384.04565383,-3076.95788801 4380.46206765,-3085.65430117 4380.59586564,-3094.31765225 C 4380.72966362,-3102.98100332 4384.57835546,-3111.49457186 4391.00860661,-3117.33927756 C 4397.43885775,-3123.18398325 4406.36503831,-3126.28044117 4415.17946305,-3125.6939519 C 4423.99388778,-3125.10746263 4432.57984427,-3120.84428175 4438.43986702,-3114.12683077 C 4444.29988977,-3107.40937979 4447.35711779,-3098.32579632 4446.74018614,-3089.51645808 C 4446.12325448,-3080.70711985 4441.84184609,-3072.28850263 4435.17673813,-3066.7166085 C 4428.51163017,-3061.14471438 4419.55312097,-3058.49357203 4410.95110887,-3059.54294727 C 4402.34909678,-3060.59232252 4394.21955627,-3065.32879752 4388.96609732,-3072.38124061 C 4383.71263837,-3079.43368369 4381.40636641,-3088.70937169 4382.739503,-3097.5174578 C 4384.0726396,-3106.3255439 4389.02816115,-3114.55033476 4396.16334534,-3119.81337314 C 4403.29852954,-3125.07641151 4412.51855205,-3127.30932156 4421.12163446,-3125.8874635 C 4429.72471688,-3124.46560544 4437.59587521,-3119.40943976 4442.41732779,-3112.22332647 C 4447.23878036,-3105.03721319 4448.94529783,-3095.81796689 4447.0144035,-3087.28050147 C 4445.08350917,-3078.74303605 4439.53941255,-3071.00163161 4431.97621678,-3066.32860566 C 4424.413021,-3061.65557972 4414.92969977,-3060.11318665 4406.27231708,-3062.14866244 C 4397.61493439,-3064.18413823 4389.89710887,-3069.76986448 4385.3520691,-3077.25676241 C 4380.80702934,-3084.74366034 4379.49401442,-3094.03104351 4381.77978313,-3102.37832213 C 4384.06555183,-3110.72560074 4389.91898727,-3118.0202589 4397.62017964,-3122.09986171 C 4405.32137202,-3126.17946453 4414.76778476,-3126.98810736 4423.19951599,-3124.26049094 C 4431.63124722,-3121.53287452 4438.9366753,-3115.30373677 4442.99300921,-3107.37072569 C 4447.04934312,-3099.43771462 4447.80371544,-3089.9051378 4445.05856216,-3081.54474557 C 4442.31340888,-3073.18435335 4436.10672362,-3066.10664938 4428.2826073,-3062.37529307 C 4420.45849099,-3058.64393675 4411.12265967,-3058.30847301 4403.03541374,-3061.47111482 C 4394.94816781,-3064.63375664 4388.21863408,-3071.25297444 4384.84078942,-3079.40675798 C 4381.46294477,-3087.56054151 4381.48294428,-3097.14151704 4384.91235726,-3105.36951256 C 4388.34177024,-3113.59750807 4395.13568739,-3120.36454688 4403.31348352,-3123.71870073 C 4411.49127966,-3127.07285458 4420.9442611,-3126.97114056 4428.90248714,-3123.47201505 C 4436.86071318,-3119.97288954 4443.21777804,-3113.12444588 4446.09891415,-3104.95545324 C 4448.98005027,-3096.78646059 4448.34583936,-3087.40680829 4444.35868698,-3079.57834402 C 4440.37153461,-3071.74987975 4433.08300363,-3065.5774521 4424.59760761,-3062.87430597 C 4416.11221159,-3060.17115984 4406.54119177,-3060.97334528 4398.65627222,-3065.0420895 C 4390.77135266,-3069.11083372 4384.6758763,-3076.39147077 4382.12838267,-3084.73900174 C 4379.58088903,-3093.08653271 4380.61404487,-3102.38882259 4384.90813429,-3109.90091998 C 4389.20222372,-3117.41301738 4396.69941416,-3123.03351637 4405.19884356,-3125.08983042 C 4413.69827295,-3127.14614446 4423.08678619,-3125.60928371 4430.62142241,-3120.90022834 C 4438.15605862,-3116.19117297 4443.73712979,-3108.37101898 4445.74638077,-3099.70293562 C 4447.75563174,-3091.03485226 4446.16742643,-3081.63292542 4441.46962413,-3074.23067807 C 4436.77182183,-3066.82843072 4429.02839129,-3061.52362082 4420.53307533,-3059.86117021 C 4412.03775937,-3058.1987196 4402.90520267,-3060.20065159 4395.83622877,-3065.28527204 C 4388.76725487,-3070.36989249 4383.857445,-3078.4701047 4382.56833643,-3087.23056887 C 4381.27922785,-3095.99103304 4383.62919023,-3105.29630506 4388.94806055,-3112.44688202 C 4394.26693087,-3119.59745898 4402.48466532,-3124.49969654 4411.20403883,-3125.74729544 C 4419.92341234,-3126.99489434 4429.02852689,-3124.57289413 4435.85122542,-3119.21865217 C 4442.67392395,-3113.8644102 4447.12290603,-3105.65069751 4447.88169699,-3097.00575231 C 4448.64048796,-3088.3608071 4445.69790202,-3079.40085007 4439.89176059,-3072.76492871 C 4434.08561916,-3066.12900736 4425.49168222,-3061.9061065 4416.5964168,-3061.33905186 C 4407.70115138,-3060.77199723 4398.62125103,-3063.86842352 4391.98474136,-3069.71827765 C 4385.3482317,-3075.56813179 4381.24184868,-3084.09305461 4380.84213577,-3092.78397709 C 4380.44242287,-3101.47489958 4383.75347596,-3110.21511876 4389.78908092,-3116.42414155 C 4395.82468589,-3122.63316433 4404.50384362,-3126.22691896 4413.27985596,-3126.12583141 C 4422.0558683,-3126.02474385 4430.81190088,-3122.22852309 4436.99005266,-3115.81922369 C 4443.16820444,-3109.40992429 4446.68683204,-3100.47125974 4446.53113817,-3091.59366837 C 4446.37544429,-3082.71607699 4442.54859205,-3074.01643167 4436.1934546,-3068.02277226 C 4429.83831714,-3062.02911285 4421.04090992,-3058.82045956 4412.40336264,-3059.32841215 C 4403.76581536,-3059.83636474 4395.40466472,-3064.05407472 4389.79502575,-3070.75152539 C 4384.18538679,-3077.44897606 4381.40342793,-3086.53761606 4382.28809076,-3095.37289789 C 4383.17275358,-3104.20817973 4387.71349116,-3112.67366402 4394.59913359,-3118.31556442 C 4401.48477601,-3123.95746481 4410.62443748,-3126.70220615 4419.35114294,-3125.77475883 C 4428.07784839,-3124.84731152 4436.27560229,-3120.26164866 4441.54173552,-3113.38820155 C 4446.80786876,-3106.51475445 4449.0717871,-3097.44650335 4447.65635166,-3088.86171897 C 4446.24091622,-3080.27693458 4441.16386385,-3072.29103733 4433.88754726,-3067.258071 C 4426.61123068,-3062.22510467 4417.23096687,-3060.21273077 4408.46329712,-3061.81698891 C 4399.69562736,-3063.42124704 4391.65554787,-3068.62088801 4386.66683927,-3075.8904715 C 4381.67813067,-3083.16005498 4379.80560906,-3092.40233587 4381.57220426,-3100.89835073 C 4383.33879946,-3109.3943656 4388.71979004,-3117.03000422 4396.12331132,-3121.54796676 C 4403.5268326,-3126.0659293 4412.85368878,-3127.40463934 4421.36766923,-3125.14433455 C 4429.88164969,-3122.88402975 4437.46940574,-3117.0531421 4441.91486663,-3109.32905675 C 4446.36032753,-3101.6049714 4447.604899,-3092.08889179 4445.29915813,-3083.54020422 C 4442.99341727,-3074.99151665 4437.16912816,-3067.52271874 4429.5536013,-3063.30171224 C 4421.93807443,-3059.08070574 4412.6340916,-3058.16293013 4404.39200329,-3060.80968892 C 4396.14991498,-3063.45644772 4389.08099732,-3069.63244097 4385.28226618,-3077.53467072 C 4381.48353504,-3085.43690048 4381.00706925,-3094.96078881 4384.01723777,-3103.33443733 C 4387.0274063,-3111.70808585 4393.48538766,-3118.82119606 4401.51903862,-3122.61567766 C 4409.55268958,-3126.41015926 4419.05585294,-3126.83701238 4427.2551953,-3123.79940678 C 4435.45453767,-3120.76180119 4442.24107874,-3114.30178037 4445.62506132,-3106.33820085 C 4449.00904389,-3098.37462132 4448.94491106,-3089.01496483 4445.43669689,-3081.02276545 C 4441.92848272,-3073.03056607 4435.02176326,-3066.51336134 4426.71424019,-3063.39546498 C 4418.40671712,-3060.27756862 4408.80742506,-3060.60116691 4400.69699154,-3064.27880882 C 4392.58655803,-3067.95645074 4386.07123639,-3074.93930591 4383.02867281,-3083.18017687 C 4379.98610923,-3091.42104783 4380.45523121,-3100.80976892 4384.27381853,-3108.58452923 C 4388.09240586,-3116.35928955 4395.20844047,-3122.41557337 4403.52239484,-3124.95819002 C 4411.83634921,-3127.50080667 4421.2369165,-3126.49445678 4428.96631869,-3122.20552764 C 4436.69572087,-3117.9165985 4442.65104613,-3110.40050787 4445.09386257,-3101.82772058 C 4447.53667901,-3093.25493329 4446.43503255,-3083.73794263 4442.12598873,-3076.03640148 C 4437.81694491,-3068.33486034 4430.35891676,-3062.54999715 4421.95723642,-3060.35700507 C 4413.55555609,-3058.164013 4404.32346316,-3059.59135385 4396.99027361,-3064.21416499 C 4389.65708405,-3068.83697613 4384.32198337,-3076.59367114 4382.5746836,-3085.21874882 C 4380.82738383,-3093.84382649 4382.69267465,-3103.2230932 4387.64974191,-3110.62696592 C 4392.60680917,-3118.03083864 4400.59093279,-3123.36191932 4409.28342999,-3125.08352818 C 4417.97592719,-3126.80513703 4427.26187648,-3124.89584858 4434.43149993,-3119.94237276 C 4441.60112338,-3114.98889694 4446.55913851,-3107.0587631 4447.85080319,-3098.50097349 C 4449.14246787,-3089.94318387 4446.75005825,-3080.87312471 4441.35884739,-3073.96959573 C 4435.96763653,-3067.06606676 4427.64824903,-3062.42212347 4418.81172427,-3061.41397521 C 4409.97519952,-3060.40582694 4400.73760915,-3063.04759503 4393.77374911,-3068.57354673 C 4386.80988907,-3074.09949844 4382.21076037,-3082.43621622 4381.29334335,-3091.14037104 C 4380.37592632,-3099.84452585 4383.15087868,-3108.79978919 4388.78130892,-3115.37117715 C 4394.41173916,-3121.9425651 4402.82152717,-3126.0415698 4411.53260141,-3126.44568801 C 4420.24367564,-3126.84980622 4429.13944657,-3123.55218592 4435.60983638,-3117.48962559 C 4442.08022619,-3111.42706525 4446.03907107,-3102.67857635 4446.33209659,-3093.77521562 C 4446.62512211,-3084.87185489 4443.24897179,-3075.93051308 4437.20621654,-3069.54241187 C 4431.16346128,-3063.15431065 4422.53557683,-3059.40320645 4413.87018783,-3059.36922747 C 4405.20479883,-3059.33524849 4396.61865287,-3063.01813627 4390.65206593,-3069.33306947 C 4384.685479,-3075.64800267 4381.41945735,-3084.51088543 4381.83831367,-3093.33255303 C 4382.25716999,-3102.15422064 4386.35687865,-3110.81786432 4392.96284905,-3116.80328781 C 4399.56881945,-3122.7887113 4408.59439697,-3126.01738546 4417.41617605,-3125.5677813 C 4426.23795513,-3125.11817713 4434.7392945,-3120.99775171 4440.4399881,-3114.44017961 C 4446.1406817,-3107.8826075 4448.9649875,-3098.97675654 4448.08247315,-3090.35711761 C 4447.1999588,-3081.73747867 4442.62182247,-3073.52026073 4435.67286696,-3068.1347276 C 4428.72391144,-3062.74919448 4419.49548326,-3060.26820853 4410.6646013,-3061.43511151 C 4401.83371933,-3062.60201449 4393.51638018,-3067.40199414 4388.11812013,-3074.43783871 C 4382.71986007,-3081.47368328 4380.31085374,-3090.65188991 4381.56726556,-3099.28291525 C 4382.82367738,-3107.91394058 4387.72724773,-3115.88242893 4394.818265,-3120.84212048 C 4401.90928226,-3125.80181202 4411.09219689,-3127.68563848 4419.66272539,-3125.91924368 C 4428.23325389,-3124.15284889 4436.07667634,-3118.75825409 4440.89082542,-3111.28581914 C 4445.70497449,-3103.8133842 4447.4257185,-3094.36087545 4445.55363713,-3085.66534137 C 4443.68155575,-3076.96980728 4438.24209383,-3069.14537399 4430.84153413,-3064.45646285 C 4423.44097444,-3059.7675517 4414.17885488,-3058.27531563 4405.7883733,-3060.39895239 C 4397.39789171,-3062.52258916 4389.99213871,-3068.23313861 4385.76605481,-3075.85249849 C 4381.53997091,-3083.47185838 4380.55140933,-3092.8985807 4383.11831241,-3101.37852487 C 4385.68521549,-3109.85846904 4391.77498321,-3117.27937207 4399.63074634,-3121.4846557 C 4407.48650948,-3125.68993933 4417.00498803,-3126.62475474 4425.41855673,-3124.03874142 C 4433.83212544,-3121.45272809 4441.02957325,-3115.3817627 4444.91220448,-3107.63023539 C 4448.79483571,-3099.87870808 4449.31109311,-3090.55136929 4446.30586462,-3082.40603455 C 4443.30063613,-3074.26069981 4436.81335733,-3067.40726866 4428.72743395,-3063.87596958 C 4420.64151058,-3060.34467049 4411.06341367,-3060.18369988 4402.77247295,-3063.45757776 C 4394.48153224,-3066.73145565 4387.58656175,-3073.39734172 4384.07692173,-3081.51207189 C 4380.56728172,-3089.62680206 4380.48802344,-3099.08252157 4383.83364186,-3107.10848858 C 4387.17926028,-3115.13445559 4393.9037041,-3121.62336318 4402.0144857,-3124.66186747 C 4410.12526731,-3127.70037175 4419.51327173,-3127.24696104 4427.41420751,-3123.41113991 C 4435.31514328,-3119.57531877 4441.62319776,-3112.40663701 4444.4854425,-3103.97454104 C 4447.34768724,-3095.54244507 4446.72595579,-3085.95746713 4442.80622124,-3077.99541532 C 4438.88648669,-3070.03336352 4431.72143279,-3063.79860685 4423.42223956,-3061.09043737 C 4415.12304632,-3058.38226789 4405.80120575,-3059.23548973 4398.20738965,-3063.38303457 C 4390.61357355,-3067.53057941 4384.85027489,-3074.91656406 4382.6318625,-3083.37266459 C 4380.41345011,-3091.82876512 4381.77107015,-3101.24240278 4386.33618713,-3108.86326547 C 4390.90130411,-3116.48412816 4398.61473678,-3122.21138083 4407.24454186,-3124.38399654 C 4415.87434694,-3126.55661225 4425.30694775,-3125.14678176 4432.7998463,-3120.59017303 C 4440.29274485,-3116.0335643 4445.74697731,-3108.39226785 4447.57390172,-3099.93014271 C 4449.40082614,-3091.46801757 4447.5762313,-3082.2992669 4442.62992363,-3075.13530437 C 4437.68361596,-3067.97134184 4429.68085225,-3062.90901227 4420.94845948,-3061.4544792 C 4412.21606671,-3059.99994614 4402.86911557,-3062.17377981 4395.61930403,-3067.35735135 C 4388.36949249,-3072.54092288 4383.31178495,-3080.66598827 4381.89797019,-3089.36243683 C 4380.48415543,-3098.0588854 4382.731405,-3107.21112407 4387.95349246,-3114.13720756 C 4393.17557992,-3121.06329106 4401.30149224,-3125.67054368 4409.92868103,-3126.5961818 C 4418.55586982,-3127.52181993 4427.56835059,-3124.75243828 4434.31170774,-3119.0751798 C 4441.05506488,-3113.39792131 4445.43888442,-3104.88683152 4446.17325684,-3096.00413689 C 4446.90762926,-3087.12144226 4443.98269411,-3077.98366912 4438.25832725,-3071.2357763 C 4432.53396039,-3064.48788347 4424.0868517,-3060.2180886 4415.40330226,-3059.65074843 C 4406.71975283,-3059.08340825 4397.91636755,-3062.22484851 4391.59212151,-3068.13848271 C 4385.26787547,-3074.05211692 4381.50837319,-3082.65856848 4381.44168541,-3091.43241261 C 4381.37499763,-3100.20625673 4385.0036472,-3109.03068789 4391.29460982,-3115.32779206 C 4397.58557244,-3121.62489623 4406.45670879,-3125.31144765 4415.33733887,-3125.3235156 C 4424.21796896,-3125.33558356 4432.99117948,-3121.67409949 4439.10740585,-3115.43355088 C 4445.22363223,-3109.19300226 4448.60222382,-3100.45788024 4448.26185799,-3091.81209025 C 4447.92149216,-3083.16630026 4443.86678808,-3074.72648866 4437.28006795,-3068.99078618 C 4430.69334783,-3063.2550837 4421.66169004,-3060.30133574 4412.81296944,-3061.01874826 C 4403.96424884,-3061.73616078 4395.41508357,-3066.11641171 4389.64374452,-3072.89528851 C 4383.87240547,-3079.67416532 4380.95418965,-3088.76220243 4381.71488418,-3097.50752978 C 4382.47557872,-3106.25285712 4386.90342873,-3114.53923142 4393.67417796,-3119.9380538 C 4400.44492719,-3125.33687618 4409.46696152,-3127.77578733 4418.07553297,-3126.52644656 C 4426.68410442,-3125.27710579 4434.76347616,-3120.35504048 4439.93225435,-3113.17725513 C 4445.10103253,-3105.99946978 4447.28974902,-3096.65997066 4445.8507675,-3087.86337155 C 4444.41178597,-3079.06677245 4439.36415703,-3070.9284544 4432.18884324,-3065.80094203 C 4425.01352946,-3060.67342966 4415.80652192,-3058.62338548 4407.27646329,-3060.2256813 C 4398.74640466,-3061.82797713 4391.00785802,-3067.0600771 4386.34823346,-3074.373681 C 4381.68860889,-3081.6872849 4380.17136728,-3090.98439304 4382.26850815,-3099.53749889 C 4384.36564901,-3108.09060475 4390.05091087,-3115.78583917 4397.68951775,-3120.37568391 C 4405.32812463,-3124.96552865 4414.82001016,-3126.38946878 4423.41286709,-3124.24559926 C 4432.00572401,-3122.10172974 4439.58646714,-3116.41966137 4443.95444027,-3108.88509175 C 4448.32241339,-3101.35052213 4449.42022201,-3092.06515611 4446.93388609,-3083.77389703 C 4444.44755017,-3075.48263795 4438.41023565,-3068.29741603 4430.58436394,-3064.34927701 C 4422.75849224,-3060.401138 4413.24762554,-3059.74414823 4404.81985218,-3062.59549684 C 4396.39207883,-3065.44684544 4389.15841731,-3071.76982366 4385.21223047,-3079.73178929 C 4381.26604364,-3087.69375492 4380.65834942,-3097.18950437 4383.538891,-3105.44787352 C 4386.41943258,-3113.70624267 4392.74825582,-3120.617466 4400.64489178,-3124.15530507 C 4408.54152775,-3127.69314415 4417.8993852,-3127.80999539 4425.95545646,-3124.45693806 C 4434.01152771,-3121.10388074 4440.65742557,-3114.32442694 4443.93118153,-3106.0790412 C 4447.2049375,-3097.83365547 4447.06229196,-3088.23054585 4443.53775031,-3080.05145687 C 4440.01320866,-3071.87236789 4433.15356466,-3065.22446617 4424.96996497,-3062.02418999 C 4416.78636528,-3058.8239138 4407.38821371,-3059.11228861 4399.54008046,-3062.77997969 C 4391.6919472,-3066.44767077 4385.49932404,-3073.44466735 4382.79729366,-3081.70627168 C 4380.09526328,-3089.96787601 4380.92124566,-3099.38347762 4385.06162789,-3107.19089955 C 4389.20201012,-3114.99832149 4396.6033505,-3121.09361405 4405.12875938,-3123.69739183 C 4413.65416826,-3126.3011696 4423.1917826,-3125.37933731 4430.97591517,-3121.216348 C 4438.76004775,-3117.05335869 4444.68837142,-3109.70568251 4447.04371742,-3101.34636333 C 4449.39906343,-3092.98704414 4448.15081022,-3083.72875802 4443.67142055,-3076.30848491 C 4439.19203088,-3068.88821179 4431.54118329,-3063.4062956 4422.9534087,-3061.49540566 C 4414.36563412,-3059.58451572 4404.95462995,-3061.27161787 4397.45926539,-3066.08803483 C 4389.96390083,-3070.90445178 4384.482791,-3078.78733447 4382.59651328,-3087.44762256 C 4380.71023555,-3096.10791065 4382.44240591,-3105.43111112 4387.25813804,-3112.69654657 C 4392.07387017,-3119.96198202 4399.90746706,-3125.07309545 4408.43817256,-3126.53034912 C 4416.96887807,-3127.9876028 4426.08166625,-3125.77107013 4433.08523513,-3120.51456369 C 4440.088804,-3115.25805726 4444.88876729,-3107.03040976 4446.06326522,-3098.21581803 C 4447.23776314,-3089.4012263 4444.77046147,-3080.11547022 4439.37604521,-3073.04743872 C 4433.98162894,-3065.97940722 4425.73176585,-3061.22148706 4417.04437186,-3060.13711992 C 4408.35697787,-3059.05275278 4399.34815852,-3061.65481725 4392.66856787,-3067.15700771 C 4385.98897722,-3072.65919818 4381.7285625,-3080.98710043 4381.1570545,-3089.68660219 C 4380.5855465,-3098.38610395 4383.71202393,-3107.34076962 4389.64976365,-3113.92328916 C 4395.58750336,-3120.5058087 4404.25915431,-3124.62852669 4413.15614205,-3125.08922049 C 4422.05312979,-3125.54991428 4431.05864835,-3122.34299698 4437.56269835,-3116.42152299 C 4444.06674835,-3110.50004899 4447.98403096,-3101.94388069 4448.18579523,-3093.27965905 C 4448.38755949,-3084.61543742 4444.87183191,-3075.95989449 4438.67452381,-3069.87365138 C 4432.47721571,-3063.78740827 4423.68085824,-3060.35306296 4414.85515125,-3060.60417857 C 4406.02944425,-3060.85529417 4397.29125023,-3064.79007643 4391.18257841,-3071.28219117 C 4385.07390658,-3077.7743059 4381.6749256,-3086.73861306 4381.95699516,-3095.56963439 C 4382.23906472,-3104.40065572 4386.19695637,-3112.98162701 4392.64455189,-3118.80904241 C 4399.09214741,-3124.63645781 4407.94204193,-3127.63288958 4416.57611708,-3126.91754239 C 4425.21019223,-3126.2021952 4433.51204699,-3121.7840435 4439.02765335,-3114.94107958 C 4444.54325971,-3108.09811566 4447.19802501,-3098.92027609 4446.19776076,-3090.06977785 C 4445.1974965,-3081.21927962 4440.55479826,-3072.81238026 4433.62085821,-3067.2808208 C 4426.68691817,-3061.74926134 4417.55388363,-3059.16498963 4408.89808085,-3060.25545163 C 4400.24227808,-3061.34591363 4392.17939238,-3066.09505726 4387.08330363,-3073.0883552 C 4381.98721489,-3080.08165314 4379.92680581,-3089.22485572 4381.5280995,-3097.82529896 C 4383.1293932,-3106.42574221 4388.37256469,-3114.36830825 4395.7515596,-3119.32182097 C 4403.13055452,-3124.27533368 4412.54884951,-3126.17380752 4421.27940684,-3124.46581952 C 4430.00996416,-3122.75783152 4437.93819179,-3117.46664369 4442.76929882,-3110.15515473 C 4447.60040585,-3102.84366577 4449.27134777,-3093.61022874 4447.31063864,-3085.17964915 C 4445.34992951,-3076.74906955 4439.78436213,-3069.2349714 4432.24961791,-3064.86399633 C 4424.7148737,-3060.49302125 4415.31127505,-3059.32494988 4406.78619672,-3061.73024797 C 4398.26111838,-3064.13554607 4390.72742375,-3070.08376336 4386.37469318,-3077.85944738 C 4382.02196262,-3085.63513139 4380.90700634,-3095.1360674 4383.33289296,-3103.59976295 C 4385.75877957,-3112.06345851 4391.69176249,-3119.37803576 4399.36782436,-3123.4105277 C 4407.04388622,-3127.44301964 4416.35928047,-3128.13987549 4424.55968648,-3125.29314122 C 4432.76009249,-3122.44640696 4439.73487813,-3116.09340979 4443.41830737,-3108.07826552 C 4447.10173661,-3100.06312124 4447.44358933,-3090.49135934 4444.32642055,-3082.14045598 C 4441.20925178,-3073.78955261 4434.67381719,-3066.76911946 4426.62511161,-3063.10522635 C 4418.57640603,-3059.44133324 4409.12140592,-3059.18108338 4401.03064262,-3062.37192872 C 4392.93987933,-3065.56277406 4386.32152172,-3072.16072217 4383.12678995,-3080.21029728 C 4379.93205817,-3088.25987239 4380.20454213,-3097.65277372 4383.88767527,-3105.62327702 C 4387.5708084,-3113.59378032 4394.61707206,-3120.03514749 4402.99283857,-3123.05544367 C 4411.36860508,-3126.07573985 4420.96409153,-3125.63469609 4429.00041509,-3121.86541741 C 4437.03673865,-3118.09613873 4443.40854233,-3111.04930746 4446.27643498,-3102.8015124 C 4449.14432763,-3094.55371734 4448.47138041,-3085.21576678 4444.47191443,-3077.54304621 C 4440.47244845,-3069.87032563 4433.20037707,-3063.96637764 4424.79069395,-3061.58672416 C 4416.38101082,-3059.20707068 4406.94567721,-3060.38500279 4399.24135332,-3064.80456053 C 4391.53702943,-3069.22411827 4385.66566055,-3076.8280567 4383.33044111,-3085.41646986 C 4380.99522166,-3094.00488302 4382.22612393,-3103.46474485 4386.63983322,-3111.04558095 C 4391.05354251,-3118.62641706 4398.58986921,-3124.22809381 4407.01566777,-3126.21882801 C 4415.44146634,-3128.2095622 4424.64301683,-3126.56296355 4431.89930859,-3121.75675791 C 4439.15560034,-3116.95055227 4444.3685603,-3109.04813273 4445.98795145,-3100.34696621 C 4447.60734259,-3091.64579969 4445.61040165,-3082.2605415 4440.56399981,-3074.91409799 C 4435.51759798,-3067.56765448 4427.48815456,-3062.3562755 4418.81780185,-3060.77671313 C 4410.14744914,-3059.19715076 4400.95143307,-3061.2687814 4393.92450791,-3066.35676359 C 4386.89758275,-3071.44474578 4382.13376565,-3079.47985043 4381.04165,-3088.08609889 C 4379.94953435,-3096.69234735 4382.54473999,-3105.75403371 4388.09108678,-3112.6023451 C 4393.63743357,-3119.45065648 4402.06261744,-3123.99378278 4410.92954744,-3124.89520232 C 4419.79647744,-3125.79662185 4428.98883695,-3123.04425205 4435.84569552,-3117.44747723 C 4442.70255409,-3111.85070242 4447.13424457,-3103.48451518 4447.86904059,-3094.8115395 C 4448.60383661,-3086.13856382 4445.63318485,-3077.27526394 4439.84370017,-3070.83814559 C 4434.05421549,-3064.40102723 4425.52362297,-3060.47719639 4416.75515155,-3060.24280531 C 4407.98668012,-3060.00841422 4399.09706384,-3063.46821661 4392.68328948,-3069.63859179 C 4386.26951512,-3075.80896697 4382.41636045,-3084.60937973 4382.23650323,-3093.48984335 C 4382.05664601,-3102.37030696 4385.55138683,-3111.21391036 4391.67502621,-3117.45049244 C 4397.79866559,-3123.68707452 4406.46826759,-3127.23438361 4415.11909751,-3127.06173142 C 4423.76992742,-3126.88907922 4432.28527185,-3122.9988539 4438.14489965,-3116.52525221 C 4444.00452744,-3110.05165053 4447.12894468,-3101.0802461 4446.57900866,-3092.22128403 C 4446.02907263,-3083.36232197 4441.81087756,-3074.73255664 4435.14121946,-3068.83384201 C 4428.47156137,-3062.93512738 4419.43845292,-3059.84445486 4410.67769243,-3060.43807132 C 4401.91693195,-3061.03168778 4393.54496799,-3065.3000609 4388.01544243,-3071.96559633 C 4382.48591687,-3078.63113177 4379.87292769,-3087.60361501 4380.95574971,-3096.23279642 C 4382.03857173,-3104.86197783 4386.80389269,-3113.03184641 4393.88057048,-3118.3345295 C 4400.95724827,-3123.6372126 4410.25262161,-3126.00146081 4419.07498763,-3124.72827835 C 4427.89735366,-3123.4550959 4436.13098857,-3118.56132782 4441.39547863,-3111.48291799 C 4446.65996869,-3104.40450816 4448.88682924,-3095.2361586 4447.44945313,-3086.67520089 C 4446.01207702,-3078.11424319 4440.93080625,-3070.27565146 4433.70980939,-3065.47610834 C 4426.48881252,-3060.67656522 4417.22485733,-3058.98139286 4408.63575001,-3060.91465219 C 4400.04664268,-3062.84791151 4392.24673128,-3068.38552108 4387.51416187,-3075.93590704 C 4382.78159245,-3083.48629299 4381.17877855,-3092.95056253 4383.15996253,-3101.58448865 C 4385.1411465,-3110.21841477 4390.67888169,-3117.90836596 4398.12970145,-3122.42173243 C 4405.58052121,-3126.93509891 4414.84383478,-3128.21255206 4423.18119123,-3125.88754902 C 4431.51854768,-3123.56254597 4438.81740358,-3117.66610654 4442.9134646,-3109.91943297 C 4447.00952562,-3102.1727594 4447.84675768,-3092.67836037 4445.15523392,-3084.19950586 C 4442.46371015,-3075.72065135 4436.27801326,-3068.36903938 4428.39061778,-3064.27254434 C 4420.5032223,-3060.17604929 4411.01833986,-3059.38768859 4402.70395497,-3062.11006728 C 4394.38957008,-3064.83244596 4387.35619341,-3071.02771386 4383.66580467,-3078.85447948 C 4379.97541593,-3086.68124509 4379.67764802,-3096.03384664 4382.87435671,-3104.15081428 C 4386.0710654,-3112.26778192 4392.72081845,-3119.03991838 4400.90110092,-3122.46831855 C 4409.08138339,-3125.89671871 4418.68485329,-3125.93506583 4426.92966065,-3122.56490798 C 4435.17446801,-3119.19475013 4441.95257202,-3112.46082739 4445.30943802,-3104.33750118 C 4448.66630403,-3096.21417496 4448.55882354,-3086.8100473 4445.04340276,-3078.89143695 C 4441.52798197,-3070.9728266 4434.65260608,-3064.64616286 4426.44638741,-3061.78574783 C 4418.24016873,-3058.92533281 4408.81298095,-3059.5706934 4400.93039108,-3063.56106549 C 4393.04780121,-3067.55143757 4386.81475885,-3074.83537494 4384.05095414,-3083.31033934 C 4381.28714944,-3091.78530374 4382.02880642,-3101.34010316 4386.04419019,-3109.20402212 C 4390.05957395,-3117.06794108 4397.29417788,-3123.13759111 4405.60804233,-3125.65445222 C 4413.92190678,-3128.17131334 4423.20296034,-3127.10261545 4430.70756146,-3122.76828457 C 4438.21216259,-3118.43395369 4443.83884558,-3110.8917387 4445.91258327,-3102.34438533 C 4447.98632096,-3093.79703196 4446.47798123,-3084.35769991 4441.8039366,-3076.77354694 C 4437.12989198,-3069.18939396 4429.35109764,-3063.5602163 4420.72615832,-3061.50991501 C 4412.101219,-3059.45961372 4402.7441575,-3061.01398672 4395.38555873,-3065.69017007 C 4388.02695996,-3070.36635343 4382.76462025,-3078.10050647 4381.14232516,-3086.60096969 C 4379.52003007,-3095.10143291 4381.55990166,-3104.25358268 4386.67981727,-3111.35460005 C 4391.79973288,-3118.45561743 4399.93267679,-3123.40981982 4408.72216185,-3124.75021808 C 4417.51164691,-3126.09061633 4426.84222721,-3123.79866933 4434.01189855,-3118.5377544 C 4441.18156988,-3113.27683948 4446.09659343,-3105.11684851 4447.34756004,-3096.44940139 C 4448.59852666,-3087.78195428 4446.17034158,-3078.72289123 4440.7984344,-3071.93756729 C 4435.42652723,-3065.15224335 4427.18357907,-3060.73201226 4418.4988452,-3059.99336608 C 4409.81411132,-3059.25471989 4400.80383086,-3062.20896066 4394.11158639,-3068.01976061 C 4387.41934193,-3073.83056056 4383.13424849,-3082.42225723 4382.50603876,-3091.30967031 C 4381.87782902,-3100.1970834 4384.91431827,-3109.26353428 4390.71231826,-3115.88119517 C 4396.51031825,-3122.49885605 4404.99160911,-3126.58091681 4413.65145852,-3126.95041345 C 4422.31130794,-3127.31991008 4431.03304204,-3123.97263783 4437.2366726,-3117.89521907 C 4443.44030315,-3111.8178003 4447.04167062,-3103.09117134 4446.95834229,-3094.26462991 C 4446.87501396,-3085.43808848 4443.10655208,-3076.62850818 4436.73062655,-3070.3987854 C 4430.35470102,-3064.16906263 4421.45490628,-3060.6009763 4412.61784467,-3060.71536527 C 4403.78078306,-3060.82975424 4395.12329912,-3064.62362063 4389.17128584,-3070.95883897 C 4383.21927255,-3077.29405731 4380.05181512,-3086.08471762 4380.59974988,-3094.73003309 C 4381.14768465,-3103.37534855 4385.40426418,-3111.75876863 4392.13877116,-3117.40239982 C 4398.87327814,-3123.04603101 4407.99721875,-3125.87357759 4416.86414651,-3125.04029638 C 4425.73107427,-3124.20701516 4434.22451307,-3119.72328041 4439.88740101,-3112.89377262 C 4445.55028895,-3106.06426483 4448.30893118,-3096.97974208 4447.38486202,-3088.30233639 C 4446.46079286,-3079.62493071 4441.86785096,-3071.47061477 4434.97486002,-3066.24002037 C 4428.08186907,-3061.00942597 4418.9817444,-3058.77322506 4410.35454566,-3060.20887635 C 4401.72734693,-3061.64452763 4393.68854791,-3066.73440958 4388.59748189,-3074.01731937 C 4383.50641586,-3081.30022915 4381.4308982,-3090.6809216 4382.97415374,-3099.44336123 C 4384.51740927,-3108.20580086 4389.65836738,-3116.23497153 4396.8780856,-3121.20654705 C 4404.09780382,-3126.17812256 4413.29914988,-3128.02718983 4421.76670789,-3126.23014457 C 4430.2342659,-3124.4330993 4437.85391995,-3119.01455716 4442.36814342,-3111.56718092 C 4446.88236688,-3104.11980468 4448.22947358,-3094.74275452 4445.98661315,-3086.17563726 C 4443.74375272,-3077.60852001 4437.93921459,-3069.96475828 4430.24641164,-3065.46613737 C 4422.55360869,-3060.96751646 4413.07365312,-3059.6727873 4404.56289863,-3061.93761888 C 4396.05214414,-3064.20245047 4388.62309459,-3069.99523867 4384.44221084,-3077.59298619 C 4380.2613271,-3085.19073371 4379.38413393,-3094.49073578 4382.0713509,-3102.74317542 C 4384.75856788,-3110.99561506 4390.97498977,-3118.08916796 4398.91646184,-3121.92334756 C 4406.85793392,-3125.75752716 4416.41990671,-3126.28010797 4424.82776829,-3123.32076513 C 4433.23562987,-3120.36142229 4440.37901088,-3113.958812 4444.19586773,-3105.97906554 C 4448.01272458,-3097.99931907 4448.45391925,-3088.54849556 4445.4190565,-3080.39590431 C 4442.38419375,-3072.24331307 4435.91519105,-3065.49794541 4427.92979555,-3062.14818383 C 4419.94440006,-3058.79842225 4410.55005881,-3058.88991892 4402.51291736,-3062.41906303 C 4394.47577592,-3065.94820713 4387.90345882,-3072.86952845 4384.72621606,-3081.18595665 C 4381.5489733,-3089.50238484 4381.80916161,-3099.10492635 4385.42659311,-3107.21263408 C 4389.04402461,-3115.32034181 4395.97003694,-3121.82690918 4404.16339213,-3124.85351404 C 4412.35674732,-3127.8801189 4421.70736129,-3127.38772114 4429.45614331,-3123.53781425 C 4437.20492533,-3119.68790736 4443.24732099,-3112.53241519 4445.78729947,-3104.17222105 C 4448.32727794,-3095.81202691 4447.32941543,-3086.35843375 4443.05698466,-3078.57344439 C 4438.7845539,-3070.78845503 4431.29284266,-3064.77508782 4422.74891996,-3062.27808499 C 4414.20499725,-3059.78108216 4404.7212973,-3060.83256812 4397.05526939,-3065.10172423"
     style="stroke:#000000;fill:none" />
</svg>
