<?xml version="1.0" encoding="UTF-8" standalone="no"?>
<!-- Created with Inkscape (http://www.inkscape.org/) -->

<svg
   xmlns:dc="http://purl.org/dc/elements/1.1/"
   xmlns:cc="http://creativecommons.org/ns#"
   xmlns:rdf="http://www.w3.org/1999/02/22-rdf-syntax-ns#"
   xmlns:svg="http://www.w3.org/2000/svg"
   xmlns="http://www.w3.org/2000/svg"
   xmlns:xlink="http://www.w3.org/1999/xlink"
   xmlns:sodipodi="http://sodipodi.sourceforge.net/DTD/sodipodi-0.dtd"
   xmlns:inkscape="http://www.inkscape.org/namespaces/inkscape"
   width="210mm"
   height="297mm"
   id="svg2"
   version="1.1"
   inkscape:version="0.48.3.1 r9886"
   sodipodi:docname="wreckatour.svg">
  <defs
     id="defs4" />
  <sodipodi:namedview
     id="base"
     pagecolor="#ffffff"
     bordercolor="#666666"
     borderopacity="1.0"
     inkscape:pageopacity="0.0"
     inkscape:pageshadow="2"
     inkscape:zoom="0.60375397"
     inkscape:cx="-26.028462"
     inkscape:cy="582.90133"
     inkscape:document-units="px"
     inkscape:current-layer="layer1"
     showgrid="false"
     inkscape:window-width="1920"
     inkscape:window-height="1011"
     inkscape:window-x="0"
     inkscape:window-y="44"
     inkscape:window-maximized="1" />
  <metadata
     id="metadata7">
    <rdf:RDF>
      <cc:Work
         rdf:about="">
        <dc:format>image/svg+xml</dc:format>
        <dc:type
           rdf:resource="http://purl.org/dc/dcmitype/StillImage" />
        <dc:title />
      </cc:Work>
    </rdf:RDF>
  </metadata>
  <g
     inkscape:label="Calque 1"
     inkscape:groupmode="layer"
     id="layer1">
    <g
       id="g3015"
       transform="translate(795.02583,-46.376507)">
      <text
         transform="matrix(1.5507081,1.2443938,-1.2443938,1.5507081,943.75827,418.77454)"
         sodipodi:linespacing="125%"
         id="text2985"
         style="font-size:40.51995468px;font-style:normal;font-variant:normal;font-weight:bold;font-stretch:normal;text-align:start;line-height:125%;writing-mode:lr-tb;text-anchor:start;fill:#000000;fill-opacity:1;stroke:none;font-family:Wargames;-inkscape-font-specification:Wargames Bold"
         xml:space="preserve"><textPath
           id="textPath3021"
           xlink:href="#path3019"><tspan
   id="tspan2987"
   style="font-style:normal;font-variant:normal;font-weight:bold;font-stretch:normal;font-family:Remix;-inkscape-font-specification:Remix Bold">Wreck</tspan></textPath></text>
      <text
         transform="matrix(0.94094835,-0.33855017,0.33855017,0.94094835,-204.83616,-79.773034)"
         sodipodi:linespacing="125%"
         id="text2993"
         style="font-size:88.78730774px;font-style:normal;font-variant:normal;font-weight:bold;font-stretch:normal;text-align:start;line-height:125%;writing-mode:lr-tb;text-anchor:start;fill:#000000;fill-opacity:1;stroke:none;font-family:Remix;-inkscape-font-specification:Remix Bold"
         xml:space="preserve"><textPath
           id="textPath3026"
           xlink:href="#path3024"><tspan
   id="tspan2995">tour</tspan></textPath></text>
      <path
         inkscape:connector-curvature="0"
         id="path2997"
         d="m -395.99973,297.40609 c -18.77039,0 -36.97271,2.4592 -54.28125,7.09375 l 12.84375,58.59375 13.5625,-19.28125 29.65625,90.09375 15.65625,-18.875 23.28125,176.65625 -57.0625,-137 -12.65625,25.8125 -36.71875,-58.09375 -13.5625,15 -66.75,-80.625 c -39.01886,38.01543 -63.25,91.12701 -63.25,149.90625 0,115.58531 93.69594,209.28125 209.28125,209.28125 115.58531,0 209.28125,-93.69594 209.28125,-209.28125 0,-115.58531 -93.69594,-209.28125 -209.28125,-209.28125 z"
         style="fill:#000000;fill-opacity:1;stroke:none" />
      <path
         inkscape:connector-curvature="0"
         id="path3004"
         d="m -572.62723,581.2511 128.09547,108.53721 44.32275,-40.5672 -104.38245,-140.25568 z"
         style="fill:#ffffff;fill-opacity:1;stroke:none" />
      <path
         inkscape:connector-curvature="0"
         id="path3006"
         d="m -393.85829,639.67096 -6.45572,-69.8114 -91.19517,-108.21496 -6.90331,40.02291 z"
         style="fill:#ffffff;fill-opacity:1;stroke:none" />
      <path
         sodipodi:nodetypes="cc"
         inkscape:connector-curvature="0"
         id="path3019"
         d="M -617.76395,482.13702 C -662.03406,381.20133 -496.15212,286.88219 -429.50251,351.0094"
         style="fill:none;stroke:none" />
      <path
         sodipodi:nodetypes="cc"
         inkscape:connector-curvature="0"
         id="path3024"
         d="m -453.82724,780.72836 c 221.94471,34.78238 299.79099,-24.84455 314.69772,-223.60101"
         style="fill:none;stroke:none" />
      <text
         transform="matrix(0.92228302,0.38651525,-0.38651525,0.92228302,0,0)"
         sodipodi:linespacing="125%"
         id="text2989"
         y="906.6131"
         x="-174.25348"
         style="font-size:79.86026764px;font-style:normal;font-variant:normal;font-weight:bold;font-stretch:normal;text-align:start;line-height:125%;writing-mode:lr-tb;text-anchor:start;fill:#000000;fill-opacity:1;stroke:none;font-family:Remix;-inkscape-font-specification:Remix Bold"
         xml:space="preserve"><tspan
           y="906.6131"
           x="-174.25348"
           id="tspan2991"
           sodipodi:role="line">a</tspan></text>
      <path
         transform="matrix(0.83523939,0,0,0.83523939,135.17386,80.769015)"
         d="m -684.88161,656.09149 c 0,17.60896 -12.421,31.88385 -27.74308,31.88385 -15.32209,0 -27.74309,-14.27489 -27.74309,-31.88385 0,-17.60896 12.421,-31.88385 27.74309,-31.88385 15.32208,0 27.74308,14.27489 27.74308,31.88385 z"
         sodipodi:ry="31.883848"
         sodipodi:rx="27.74309"
         sodipodi:cy="656.09149"
         sodipodi:cx="-712.62469"
         id="path3003"
         style="fill:#000000;fill-opacity:1;stroke:none"
         sodipodi:type="arc" />
      <path
         sodipodi:type="arc"
         style="fill:#000000;fill-opacity:1;stroke:none"
         id="path3005"
         sodipodi:cx="-712.62469"
         sodipodi:cy="656.09149"
         sodipodi:rx="27.74309"
         sodipodi:ry="31.883848"
         d="m -684.88161,656.09149 c 0,17.60896 -12.421,31.88385 -27.74308,31.88385 -15.32209,0 -27.74309,-14.27489 -27.74309,-31.88385 0,-17.60896 12.421,-31.88385 27.74309,-31.88385 15.32208,0 27.74308,14.27489 27.74308,31.88385 z"
         transform="matrix(0.36770692,0,0,0.36770692,-246.86228,341.96473)" />
      <path
         sodipodi:nodetypes="ccccc"
         inkscape:connector-curvature="0"
         id="path3007"
         d="m -317.18218,601.84754 70.39291,16.56304 48.03282,-155.69255 -72.87738,-11.59413 z"
         style="fill:#ffffff;fill-opacity:1;stroke:none" />
      <path
         sodipodi:nodetypes="ccccc"
         inkscape:connector-curvature="0"
         id="path3009"
         d="m -323.8074,593.56603 -17.39119,-44.72021 31.46977,-92.75301 28.98532,-5.79707 z"
         style="fill:#ffffff;fill-opacity:1;stroke:none" />
      <path
         sodipodi:type="arc"
         style="fill:#000000;fill-opacity:1;stroke:none"
         id="path3011"
         sodipodi:cx="-712.62469"
         sodipodi:cy="656.09149"
         sodipodi:rx="27.74309"
         sodipodi:ry="31.883848"
         d="m -684.88161,656.09149 c 0,17.60896 -12.421,31.88385 -27.74308,31.88385 -15.32209,0 -27.74309,-14.27489 -27.74309,-31.88385 0,-17.60896 12.421,-31.88385 27.74309,-31.88385 15.32208,0 27.74308,14.27489 27.74308,31.88385 z"
         transform="matrix(0.95464237,0,0,0.83523939,411.56646,24.454686)" />
      <path
         transform="matrix(0.445629,0,0,0.445629,70.362919,203.88477)"
         d="m -684.88161,656.09149 c 0,17.60896 -12.421,31.88385 -27.74308,31.88385 -15.32209,0 -27.74309,-14.27489 -27.74309,-31.88385 0,-17.60896 12.421,-31.88385 27.74309,-31.88385 15.32208,0 27.74308,14.27489 27.74308,31.88385 z"
         sodipodi:ry="31.883848"
         sodipodi:rx="27.74309"
         sodipodi:cy="656.09149"
         sodipodi:cx="-712.62469"
         id="path3013"
         style="fill:#000000;fill-opacity:1;stroke:none"
         sodipodi:type="arc" />
    </g>
  </g>
</svg>
